<?xml version="1.0" encoding="utf-8"?>
<!-- Generator: Adobe Illustrator 23.0.5, SVG Export Plug-In . SVG Version: 6.00 Build 0)  -->
<svg version="1.1" id="Layer_1" xmlns="http://www.w3.org/2000/svg" xmlns:xlink="http://www.w3.org/1999/xlink" x="0px" y="0px"
	 viewBox="0 0 62.5 68.8" style="enable-background:new 0 0 62.5 68.8;" xml:space="preserve">
<style type="text/css">
	.st0{fill:#FFFFFF;}
</style>
<title>Asset 9</title>
<g>
	<path class="st0" d="M28.4,27.9c-1,1.1-1.4,2.5-1.4,4.4c0,2.9,1.2,4.3,3.5,4.3c1.2,0,2.2-0.4,2.8-1.3c0.6-0.9,1-2.3,1.2-4.3
		l0.3-4.5c-0.7-0.2-1.5-0.2-2.4-0.2C30.7,26.3,29.4,26.8,28.4,27.9z"/>
	<path class="st0" d="M31.3,0C14,0,0,14,0,31.3s14,31.3,31.3,31.3s31.3-14,31.3-31.3S48.5,0,31.3,0z M47.1,35.1
		c-0.6,1.6-1.5,2.9-2.7,3.9c-1.2,0.9-2.5,1.4-4,1.4c-1,0-1.9-0.2-2.7-0.7c-0.8-0.5-1.3-1.1-1.7-1.9h-0.3c-1.5,1.8-3.4,2.7-5.7,2.7
		c-2.4,0-4.3-0.7-5.7-2.2c-1.4-1.5-2.1-3.5-2.1-6c0-2.9,0.9-5.2,2.8-7s4.2-2.7,7.2-2.7c1.2,0,2.5,0.1,3.9,0.3
		c1.4,0.2,2.6,0.5,3.5,0.8l-0.5,10.1c0,1.9,0.5,2.9,1.6,2.9c0.9,0,1.6-0.6,2.1-1.9c0.5-1.3,0.8-3,0.8-5c0-2.2-0.5-4.2-1.4-5.9
		c-0.9-1.7-2.2-3-3.9-3.9c-1.7-0.9-3.6-1.3-5.7-1.3c-2.8,0-5.2,0.6-7.2,1.7c-2,1.1-3.6,2.8-4.7,4.9c-1.1,2.1-1.6,4.6-1.6,7.4
		c0,3.8,1,6.7,3,8.7c2,2,5,3,8.8,3c1.5,0,3.1-0.2,4.8-0.5c1.7-0.3,3.5-0.8,5.1-1.4v4c-2.9,1.2-6.2,1.9-9.8,1.9
		c-5.2,0-9.3-1.4-12.2-4.1c-2.9-2.7-4.4-6.6-4.4-11.4c0-3.4,0.7-6.5,2.2-9.2c1.5-2.8,3.6-4.9,6.4-6.5s5.9-2.4,9.5-2.4
		c3,0,5.7,0.6,8.1,1.9s4.2,3,5.5,5.3c1.3,2.3,1.9,4.9,1.9,7.9C48.1,31.7,47.7,33.5,47.1,35.1z"/>
</g>
</svg>
