<?xml version="1.0" encoding="utf-8"?>
<!-- Generator: Adobe Illustrator 23.0.5, SVG Export Plug-In . SVG Version: 6.00 Build 0)  -->
<svg version="1.1" id="Layer_1" xmlns="http://www.w3.org/2000/svg" xmlns:xlink="http://www.w3.org/1999/xlink" x="0px" y="0px"
	 viewBox="0 0 464 758" style="enable-background:new 0 0 464 758;" xml:space="preserve">
<style type="text/css">
	.st0{fill:#5D4098;}
	.st1{fill:#402B7D;}
</style>
<g>
	<g>
		<g>
			<path d="M105.71,27.3c-2.51,4.7-8.72,9.22-8.72,5.87c0-0.84,7.38-6.04,7.38-10.56c0-4.86-5.87-7.21-14.25-7.21
				c-6.2,0-21.8,2.35-34.04,9.05c-13.41,7.38-15.42,12.58-5.2,17.44c16.1,7.54,48.96,14.75,48.96,32.36c0,4.7-2.68,9.56-7.71,14.59
				c-15.93,15.26-44.6,26.16-64.38,26.16c-15.59,0-24.81-5.2-24.81-15.09c0-10.23,6.87-19.11,16.26-25.15
				c8.55-5.87,19.28-9.22,28.17-9.22c5.2,0,3.52,2.51-0.34,2.51c-8.05,0-18.95,4.36-26.49,11.23c-14.92,13.41-11.4,28,10.39,28
				c11.4,0,24.48-3.19,29.51-4.86c12.24-4.02,26.49-11.07,31.35-18.61c16.93-25.82-55.33-24.31-55.33-45.94
				c0-18.44,39.07-28.34,53.82-28.34c12.41,0,18.44,3.02,18.44,9.22C108.73,21.77,107.89,23.78,105.71,27.3z"/>
			<path d="M123.98,59.16c8.05-21.29,25.65-54.99,46.95-50.8c1.34,0.17,2.68,0.84,3.69,1.34c11.4,6.2-5.7,25.65-10.4,30.85
				c-10.73,11.4-24.82,21.13-34.2,25.15c-5.2,11.57-9.89,24.98-11.57,30.18l10.9-14.25c-0.17-2.35-0.17-4.36,0.17-6.2
				c0.34-2.18,2.85-5.37,3.35-1.17l0.67,2.35c4.19-4.86,13.08-15.09,18.61-17.77c7.88-3.86,14.59,2.51,6.54,6.54
				c-5.2,2.51-17.61,8.05-24.31,15.09c5.03,17.77,8.55,26.16,20.12,40.41c5.03,6.04,10.73,9.89,15.09,9.89
				c8.22,0,4.19-9.22,1.51-13.41c-2.35-3.69,1.01-2.85,3.19-1.17c1.17,1.34,3.69,6.2,3.69,9.05c-0.17,6.87-8.72,10.06-12.91,10.06
				c-16.6,0-31.02-27.16-35.04-49.29c-7.71,10.9-13.41,21.29-15.76,22.63c-1.68,0.84-10.73,4.86-9.22,1.68
				c1.01-1.84,7.71-21.46,13.25-35.54c-2.35,2.51-5.2,6.04-9.05,11.57c-1.01,1.34-4.53,1.17-1.68-2.51
				c4.69-5.7,10.9-15.09,14.25-19.62c-4.53-2.51-2.01-7.04,0.84-5.37C123.14,58.99,123.48,59.16,123.98,59.16z M160.37,38.2
				c2.51-2.85,16.93-21.8,12.24-25.49c-1.34-1.01-4.02-0.5-7.88,2.51C149.63,26.8,140.92,40.72,132.03,60
				C141.59,55.64,151.81,48.09,160.37,38.2z"/>
			<path d="M184.51,152.55c-6.2,9.22-16.1,20.46-27.5,18.44c-1.17-0.34-2.51-0.67-3.35-1.17c-10.56-5.2-5.53-15.26,3.35-25.65
				c8.38-9.72,25.82-21.29,36.72-28.5c7.71-15.76,17.44-37.39,19.95-45.1c-9.05,10.39-25.65,38.56-40.91,38.56
				c-14.92,0-13.41-15.09-8.55-24.48c3.69-7.38,8.22-12.91,13.58-17.61c7.38-7.04,13.58,0.84,11.4,2.52
				c-3.86,2.18-9.56,7.71-14.59,14.25c-2.68,3.52-9.22,17.1-4.69,20.29c3.02,2.35,8.89,0,13.75-4.69
				c12.58-11.9,21.63-25.32,32.53-38.56c1.51-3.86,11.9,0.67,11.07,2.51c-4.19,9.22-14.08,31.69-20.29,44.93
				c4.19-2.18,19.95-14.42,30.01-26.83c2.01-2.51,3.35,0.17,1.34,2.85c-6.71,9.05-25.49,26.32-34.71,31.35
				C196.41,130.42,189.7,144.33,184.51,152.55z M160.87,146.85c-12.74,12.74-8.38,26.99,4.19,16.93
				c12.74-10.23,18.44-27.5,25.49-41.75C181.82,128.57,169.58,137.96,160.87,146.85z"/>
			<path d="M272.7,25.63c5.7-8.72,15.09-19.62,26.49-16.43l3.35,1.17c6.71,3.86,5.87,10.73,2.18,18.44
				c-6.2,13.25-28.5,37.89-45.27,51.31c5.87-0.5,12.07-1.17,17.94-1.17c2.68,0,7.04,0.84,0,2.85c-2.85,0.84-14.75,2.52-25.15,4.02
				c-4.69,11.9-12.41,32.69-17.27,46.11c-5.03,14.25-1.85,12.41-3.69,16.93c-4.02,10.39-4.53,13.08-7.04,14.59
				c-2.52,1.34-12.58,5.53-10.06,0.5c2.01-3.69,20.62-50.63,31.02-77.29c-3.86,0.5-7.21,0.67-8.55,0.67c-2.01,0-4.53-1.51-4.53-3.86
				c0-2.85,7.54-4.7,10.06-4.7c2.68,0,3.35,2.68,4.7,2.68h0.5l4.86-12.41C255.59,59.66,265.32,37.36,272.7,25.63z M254.25,80.62
				c16.77-12.41,36.72-38.4,45.77-54.16c5.03-8.55,3.52-18.44-6.71-10.4c-6.54,5.03-17.44,20.79-23.98,32.53
				c-7.38,13.92-13.25,27.83-13.75,29.34C255.09,78.44,254.76,79.61,254.25,80.62z"/>
			<path d="M279.57,103.42c-12.41-15.76,25.82-40.91,38.39-43.93c5.03-1.34,12.41-1.68,16.77,1.34c1.68,1.17,2.85,2.85,2.85,4.53
				c0,1.17-0.17,1.17-1.01,0.84c-1.85-2.85-5.2-3.19-8.38-3.19c-8.72,0-20.46,6.71-29.17,14.42c-4.69,4.36-18.61,20.29-13.41,27.66
				c2.35,3.35,10.56-2.68,12.91-4.53c4.36-3.69,11.9-10.06,16.26-14.75c2.35-2.51,15.09-16.6,16.6-16.6c1.68,0,8.22,1.34,6.71,4.02
				c-6.04,8.55-9.39,18.95-10.06,24.31c-1.01,7.21,2.35,11.07,7.71,8.22c5.53-3.02,18.11-13.58,24.98-23.31
				c0.84-1.17,2.85-0.17,2.01,1.34c-3.02,5.87-13.41,16.93-21.8,22.97c-5.37,4.02-17.77,8.05-21.13-2.01
				c-1.51-4.53,0.5-14.59,2.68-20.46c-2.85,1.34-18.78,24.81-32.19,24.81C286.78,109.12,282.08,106.78,279.57,103.42z"/>
			<path d="M364.57,93.53c-1.01,8.22,1.34,17.27,11.07,11.74c6.54-3.52,18.95-14.75,24.65-22.8c0.84-1.17,2.85-0.17,1.84,1.68
				c-3.35,5.87-13.92,16.93-22.3,23.14c-3.35,2.51-7.21,3.69-10.4,3.69c-10.06,0-13.08-5.7-12.74-13.41
				c1.01-16.77,21.29-56.84,32.19-71.26c6.37-8.22,13.92-18.28,25.32-18.28c7.54,0,13.08,5.87,7.04,16.77
				c-13.75,23.98-33.53,43.59-54.49,61.03C365.57,89.17,364.74,91.85,364.57,93.53z M369.26,79.11
				c16.43-11.23,38.56-40.24,47.45-57.34c4.53-8.22,0.67-12.07-6.71-6.54c-10.23,7.88-18.78,19.95-25.99,32.86
				c-1.84,3.35-6.2,11.9-10.06,19.45C372.11,71.4,370.61,75.42,369.26,79.11z"/>
			<path d="M404.64,93.53c-1.01,8.22,1.34,17.27,11.07,11.74c6.54-3.52,18.95-14.75,24.65-22.8c0.84-1.17,2.85-0.17,1.84,1.68
				c-3.35,5.87-13.92,16.93-22.3,23.14c-3.35,2.51-7.21,3.69-10.4,3.69c-10.06,0-13.08-5.7-12.74-13.41
				c1.01-16.77,21.29-56.84,32.19-71.26c6.37-8.22,13.92-18.28,25.32-18.28c7.54,0,13.08,5.87,7.04,16.77
				c-13.75,23.98-33.53,43.59-54.49,61.03C405.64,89.17,404.8,91.85,404.64,93.53z M409.33,79.11
				c16.43-11.23,38.56-40.24,47.45-57.34c4.53-8.22,0.67-12.07-6.71-6.54c-10.23,7.88-18.78,19.95-25.99,32.86
				c-1.84,3.35-6.2,11.9-10.06,19.45C412.18,71.4,410.67,75.42,409.33,79.11z"/>
		</g>
	</g>
	<g>
		<path class="st0" d="M232.65,275.21l-3.59-4.66c-0.79,0.15,2.03,10.64,1.14,10.64c-4.13,0,0,0-1.96-2.48
			c-0.52-0.07-1.01-0.16-1.49-0.27c-0.2,1.56-1-3.82-1.2-2.14c-11.42,92.08,5.34,120.23,5.34,120.23l7.88-7.56
			C228.43,318.82,232.65,275.21,232.65,275.21z"/>
		<g>
			<path d="M266.26,442.61c0.35,2.01,0.63,4.05,0.74,6.09c0.3,5.6,0.08,11.19-0.27,16.78c-0.34,5.35-0.86,10.69-0.71,16.07
				c0.39-0.3,1.01-0.33,1.5-0.09c-0.02-0.03-0.03-0.06-0.04-0.09c0.04-0.05,0.06-0.17,0.12-0.19c2.49-0.83,3.13-3.05,3.84-5.18
				c0.1-0.28,0.12-0.57,0.16-0.87c0.21-1.44,0.9-2.52,2.15-3.34c1.07-0.71,1.95-1.71,2.99-2.46c0.79-0.57,1.73-0.96,2.6-1.42
				c0.15,0.07,0.28,0.15,0.39,0.25l-0.08-1.22c0-2.25,0.01-4.47-0.01-6.68c-0.01-0.66-0.1-1.33-0.18-1.99
				c-0.25-2.07-0.51-4.14-0.75-6.21c-0.04-0.46-0.08-0.94,0.03-1.38c0.38-1.57,0.78-3.14,0.8-4.78c0-0.24,0.11-0.5,0.23-0.71
				c0.79-1.3,1-2.72,0.89-4.22c-0.04-0.75,0.2-1.35,0.71-1.93c1.55-1.78,1.84-4,2.27-6.36c-6.86,0.87-13.53,1.83-20.37,2.92
				C265.04,437.76,265.83,440.12,266.26,442.61z"/>
			<path d="M243.63,461.44c-0.2-1.29-1.1-1.8-2.18-2.13c-0.78-0.24-1.35,0.1-1.44,0.91c-0.06,0.61-0.04,1.26,0.09,1.86
				c1.04,4.72,0.94,9.47,0.5,14.23c-0.4,4.33-1.17,8.6-2.06,12.85c-0.28,1.3-0.82,2.3-2,2.82c-1.26,0.57-1.89,1.58-2.36,2.78
				c-0.31,0.82-0.63,1.63-0.96,2.45c-0.13,0.34-0.31,0.66-0.7,0.96c-0.04-0.25-0.15-0.51-0.12-0.74c0.2-1.15,0.46-2.3,0.65-3.45
				c0.33-1.97,0.78-3.95,0.89-5.93c0.29-4.77,0.13-9.53-0.3-14.28c-0.59-6.32-1.35-12.64-1.06-19c0.07-1.63,0.13-3.26,0.2-4.89
				c0.02-0.4,0.01-0.81,0.01-1.39c-0.47,0.25-0.79,0.41-1.1,0.6c-1.28,0.79-2.53,1.63-3.82,2.4c-0.32,0.19-0.78,0.32-1.14,0.26
				c-1.56-0.26-3.12-0.6-4.83-0.95c0.1,0.7,0,1.47-0.21,2.15c-0.67,2.22-1.88,4.13-3.18,6.03c-0.22,0.33-0.45,0.66-0.68,0.99
				c-1.29,1.88-2.51,3.31-4.34,4.69c-1.64,1.24-3.43,2.33-4.9,3.79c-2.07,2.05-3.76,4.28-6.07,6.06c-0.95,0.72-1.87,1.46-2.78,2.21
				c-2.96,3.39-5.81,6.87-8.2,10.71c-1.37,2.2-2.78,4.37-4.2,6.54c-0.29,0.45-0.7,0.82-1.09,1.19c-1.63,1.55-3.42,2.96-4.6,4.93
				c-0.06,0.11-0.14,0.21-0.23,0.29c-1.38,1.14-2.2,2.68-3.06,4.21c-0.83,1.46-1.45,2.97-1.79,4.63c-0.34,1.71-0.92,3.38-1.38,5.07
				c-0.18,0.68-0.37,1.38-0.41,2.07c-0.35,4.99,0.44,9.9,1.26,14.81c0.17,1.03,0.39,2.05,0.55,3.07c0.17,1.04,0.13,2.08-0.27,3.08
				c-0.61,1.56-1.11,3.14-1.17,4.85c-0.02,0.39-0.2,0.82-0.4,1.17c-0.95,1.61-1.43,3.38-1.96,5.13c-0.52,1.68-1.03,3.36-1.66,4.98
				c-0.22,0.59-0.71,1.15-1.22,1.55c-0.88,0.69-1.57,1.47-1.92,2.55c-0.21,0.63-0.63,1.05-1.25,1.29c-1.37,0.54-2.64,1.23-3.78,2.19
				c-0.76,0.63-1.28,1.38-1.65,2.3c-0.3,0.74-0.21,1.31,0.32,1.8c1.17,1.09,1.83,2.46,2.41,3.9c0.1,0.22,0.28,0.42,0.45,0.6
				c0.61,0.66,0.83,1.49,0.78,2.31c-0.16,2.43,0.47,4.72,1.13,7c0.14,0.49,0.38,0.82,0.85,0.98c0.2,0.07,0.38,0.21,0.57,0.24
				c1.24,0.22,1.64,1.06,1.8,2.21c0.16,1.19,0.24,2.41,1.17,3.37c0.21,0.2,0.16,0.72,0.11,1.07c-0.45,2.97-0.86,5.95-1.42,8.9
				c-0.4,2.08-0.97,4.14-1.54,6.19c-0.59,2.17-0.94,4.39-1.74,6.52c-0.89,2.37-2.12,4.45-4.06,6.06c-1.58,1.31-2.67,2.94-3.39,4.87
				c-0.62,1.68-1.4,3.3-2.16,4.92c-0.27,0.56-0.66,1.06-1.04,1.56c-0.72,0.97-1.55,1.88-2.2,2.89c-0.72,1.15-1.42,2.37-0.63,3.85
				c1.5,0.27,2.84,0.01,3.88-1.15c0.71-0.81,1.35-1.7,2.04-2.53c0.55-0.67,1.06-1.41,1.73-1.95c0.9-0.72,1.59-0.54,2.16,0.43
				c0.83,1.4,1.64,2.81,2.38,4.27c0.29,0.57,0.42,1.25,0.51,1.9c0.14,1.01,0.39,1.93,1.01,2.78c0.43,0.6,0.68,1.33,0.96,2.02
				c0.7,1.7,1.34,3.42,2.06,5.1c0.56,1.29,1.38,2.31,3.13,2.21c0.08-0.33,0.23-0.67,0.24-1.02c0.03-1.33,0.05-2.67-0.02-3.99
				c-0.05-1.17-0.23-2.32-0.37-3.48c-0.03-0.24-0.1-0.49-0.12-0.74c-0.18-2.37-0.42-4.73-0.5-7.1c-0.04-1.34,0.33-2.63,0.84-3.89
				c0.81-2.02,0.93-4.14,0.68-6.29c-0.12-1.04-0.33-2.07-0.35-3.11c-0.02-1.27,0.46-2.45,1.06-3.55c0.26-0.48,0.63-0.95,0.72-1.46
				c0.52-2.8,2.33-4.96,3.58-7.39c0.1-0.19,0.2-0.38,0.33-0.54c0.61-0.76,1.21-0.77,1.81-0.01c0.73,0.91,1.39,1.9,2.73,2.18
				c0.48-0.26,0.63-0.76,0.65-1.32c0.04-1.21,0.57-2.13,1.34-3.11c1.61-2.06,3.62-3.85,4.71-6.31c0.41-0.94,1.06-1.12,2.06-0.78
				c1.03,0.35,2.05,0.72,3.06,1.08c0.79,0.27,1.46,0.15,2-0.56c0.83-1.1,1.76-2.13,2.52-3.26c1.45-2.15,2.81-4.35,4.19-6.54
				c0.33-0.53,0.56-1.12,0.86-1.66c0.18-0.33,0.35-0.69,0.61-0.95c0.73-0.73,1.49-1.43,2.28-2.12c0.74-0.64,2.45-0.38,2.95,0.46
				c0.65,1.09,1.19,2.23,1.08,3.54c-0.1,1.24,0.33,2.28,0.99,3.29c0.6,0.9,1.24,1.8,1.66,2.79c0.48,1.13,1.28,1.29,2.41,1.14
				c-0.13-0.3-0.22-0.55-0.36-0.79c-0.89-1.55-0.81-3.23-0.54-4.88c0.16-0.94,0.77-1.8,1.63-2.3c1.8-1.04,2.39-2.65,2.46-4.62
				c0.06-2.02-0.04-3.99-0.47-5.97c-0.21-0.92-0.21-1.9-0.21-2.86c0-1.48-0.37-2.84-1.38-3.92c-1.29-1.36-2.63-2.67-4.03-3.93
				c-0.82-0.75-1.89-1.04-3.02-1.03c-1.54,0.01-3.07,0.05-4.61,0.06c-0.19,0-0.39-0.1-0.56-0.21c-2-1.14-3.63-2.66-4.72-4.72
				c-0.16-0.31-0.59-0.66-0.22-0.99c0.24-0.21,0.68-0.28,1.04-0.28c0.96-0.03,1.92,0.02,2.88,0.03c0.21,0,0.4-0.07,0.58-0.11
				c0.21-1.1-0.11-1.57-1.09-1.62c-0.62-0.04-1.24-0.01-2.07-0.01c0.17-0.58,0.21-1.04,0.43-1.38c0.83-1.21,1.63-2.45,2.61-3.52
				c1.09-1.2,2.29-2.32,3.57-3.3c3.64-2.77,6.31-6.21,7.48-10.66c0.51-1.93,0.87-3.9,1.13-5.88c0.19-1.38,0.71-2.54,1.53-3.63
				c1.38-1.84,2.74-3.69,4-5.6c0.69-1.04,1.12-2.23,1.7-3.35c0.3-0.59,0.81-1.11,1-1.72c0.51-1.68,1.48-3.05,2.56-4.39
				c0.49-0.61,0.8-1.37,1.17-2.06c0.51-0.95,0.98-1.92,1.49-2.87c0.52-0.95,1.06-1.88,1.58-2.83c0.68-1.25,1.34-2.5,2.02-3.74
				c0.48-0.88,1.03-1.72,1.49-2.62c0.6-1.13,1.43-2.04,2.53-2.71c0.88-0.54,1.72-1.19,2.64-1.66c0.69-0.36,1.46-0.6,2.22-0.73
				c0.49-0.08,0.79-0.02,0.96,0.21c0.04-0.52,0.07-1.04,0.11-1.55c0.09-1.24,0.35-2.48,0.51-3.72c0.74-5.79,0.69-11.58,0.01-17.38
				C244.39,465.63,243.94,463.54,243.63,461.44z"/>
			<path d="M218.42,434.6c0.64,3.32,1.46,6.6,2.19,9.9c0.45,2.01,0.89,4.04,1.24,6.06c0.17-0.44,0.3-0.83,0.46-1.21
				c2.14-5.17,4.29-10.34,6.47-15.5c0.31-0.72,0.34-1.38,0.21-2.16c-0.46-2.59-0.94-5.18-1.14-7.8c-0.44-5.67-0.43-11.36-0.17-17.04
				c0.19-4.22,0.38-8.43,0.63-12.65c0.16-2.67,0.46-5.32,0.63-7.99c0.05-0.9,0.09-1.82,0.12-2.72c-0.51,0.09-1,0.16-1.46,0.3
				c-0.67,0.21-1.45,0.36-1.93,0.79c-1.94,1.79-3.82,3.62-5.63,5.53c-1.02,1.08-1.3,2.59-1.68,3.99c-0.93,3.41-1.18,6.9-1.26,10.41
				c-0.1,4.26-0.28,8.52-0.3,12.78c-0.02,2.88,0.03,5.77,0.29,8.63C217.36,428.85,217.87,431.74,218.42,434.6z"/>
			<path d="M295.07,592.63c0.34-4.15,0.92-8.36,0.96-12.52c-0.11,1.02-0.2,2.04-0.28,3.05
				C295.49,586.31,295.26,589.47,295.07,592.63z"/>
			<path d="M425.11,420.56c-1.55-0.47-3.92-0.43-4.52-0.32c-5.06,0.94-9.97,4.16-14.84,5.84c-2.37,0.82-4.71,1.69-7.07,2.52
				c-1.57,0.55-3.14,1.12-4.73,1.62c-1.91,0.61-3.88,0.88-5.89,0.97c-0.37,0.03-0.74,0.1-1.1,0.21c-1.54,0.52-3.07,1.07-4.61,1.6
				c-0.44,0.15-0.88,0.34-1.32,0.38c-1.9,0.2-3.76,0.75-5.71,0.65c-0.7-0.04-1.41,0.16-2.11,0.26c-1.32,0.2-2.63,0.54-3.96,0.58
				c-3.38,0.11-6.76,0.13-10.14-0.27c-4.32-0.51-8.67-0.38-13.02-0.24c-2.62,0.09-5.24,0.54-7.88,0.13
				c-0.37-0.05-0.76-0.03-1.12-0.12c-2.4-0.62-4.89-0.59-7.32-0.95c-2.38-0.35-4.74-0.95-7.11-1.42c-1.1-0.22-2.21-0.4-3.38-0.61
				c0.17-0.62,0.63-0.87,1.17-0.94c1.31-0.18,2.14-1.12,2.99-1.94c0.86-0.84,0.36-2.52-0.78-2.96c-0.85-0.32-1.69-0.64-2.66-0.49
				c-0.55,0.09-1.15-0.05-1.74-0.09c-1.04-0.06-2.07-0.15-3.06,0.33c-0.37,0.17-0.81,0.27-1.21,0.27c-2.84,0.02-5.69,0.33-8.49-0.29
				c-0.46-0.11-0.9-0.37-1.32-0.59c-0.99-0.54-1.91-1.21-2.95-1.64c-0.08-0.04-0.15-0.06-0.23-0.09c0.66,0.38,1.31,0.8,1.94,1.25
				c-0.46,0-0.86-0.04-1.24,0c-1.04,0.1-2.1,0.11-3.09,0.37c-1.41,0.38-2.33,1.36-2.8,2.79c-0.33,0.98-0.81,1.91-1.25,2.93
				c0.3,0.11,0.58,0.18,0.83,0.3c0.59,0.28,1.27,0.48,1.74,0.91c1.37,1.21,2.83,2.35,3.56,4.14c0.16,0.4,0.5,0.79,0.86,1.05
				c0.69,0.51,0.79,1.16,0.58,1.88c-0.16,0.55-0.39,1.11-0.68,1.61c-0.47,0.82-0.69,1.7-0.73,2.63c-0.12,2.55-0.14,5.1-0.35,7.64
				c-0.22,2.88-0.16,5.75,0.24,8.62c0.02,0.16,0.54,1.27,0.54,1.43c2.63-1.04,5.2-2.21,7.81-3.28c1.46-0.6,2.93-1.3,4.47-1.6
				c2.04-0.4,4.14-0.43,6.21-0.67c3.83-0.46,7.59,0.19,11.34,0.75c3.26,0.49,6.47,1.26,9.74,1.72c3.56,0.5,7.17,0.63,10.69-0.37
				c3.58-1,7.14-2.05,10.68-3.17c5.38-1.71,10.8-3.2,16.46-3.68c5.21-0.45,10.95-3.06,16.09-0.39c1.22,0.63,2.38,1.4,3.63,1.96
				c1.74,0.79,3.47,0.88,4.99-0.58c0.27-0.26,0.56-0.49,0.83-0.76c2.05-2.01,3.27-4.5,4.28-7.14c0.34-0.88,0.76-1.79,1.34-2.52
				c1.32-1.66,2.74-3.26,4.18-4.83c1.66-1.82,3.46-3.52,5.05-5.39c1.33-1.56,2.53-3.22,3.89-4.76
				C423.79,424.7,428.58,421.61,425.11,420.56z"/>
			<path d="M281.03,416.39c-1.92,0.22-3.5-0.49-5-1.56c-3.47-2.48-6.79-5.15-9.98-7.98c-3.15-2.8-6.39-5.52-9.58-8.27
				c-0.26-0.21-0.55-0.38-0.83-0.56c-3.82-2.55-7.64-5.1-11.48-7.63c-0.63-0.41-0.99-0.94-1.13-1.6c-0.37-0.27-0.74-0.53-1.11-0.78
				c-0.3-0.21-0.62-0.42-0.93-0.63c-0.3-0.2-0.61-0.39-0.92-0.58c-0.35-0.21-0.71-0.41-1.07-0.6c-0.29-0.16-0.59-0.31-0.89-0.45
				c-0.21-0.09-0.41-0.18-0.62-0.26c-0.12-0.04-0.23-0.1-0.35-0.14c0,0,0,0.01,0,0.01c-0.38-0.15-0.76-0.29-1.15-0.42
				c0.03,1.62,0.06,3.25,0.02,4.87c-0.07,3.13-0.26,6.26-0.48,9.39c-0.06,0.95-0.36,1.88-0.62,2.8c-1.85,6.75-2.55,13.62-2.14,20.6
				c0.12,1.82,0.43,3.64,0.7,5.47c0.13,0.95,0.2,0.97,1.12,0.95c3.88-0.08,7.78-0.1,11.65-0.29c1.7-0.09,3.37-0.01,5.04,0.15
				c-0.21-0.17-0.38-0.38-0.53-0.64c-1.27-2.25-2.57-4.49-3.8-6.77c-0.61-1.13-1.11-2.33-1.63-3.51c-0.15-0.32-0.24-0.67-0.45-1.27
				c3.06,2.49,6.24,4.34,9.68,5.64c1.59,0.43,3.37,0.54,4.89,1.03c1.11,0.35,2.23,0.72,3.33,1.12c6.73-4.28,15.67-6.43,24.2-5.75
				c-0.79-0.25-1.54-0.63-2.21-1.22C283.7,416.57,282.41,416.23,281.03,416.39z"/>
			<path d="M271.74,430.18h0.1c-0.01-0.02-0.02-0.03-0.03-0.04C271.78,430.16,271.76,430.17,271.74,430.18z"/>
			<path d="M264.09,546.35c0.02,0,0.03,0.01,0.04,0.01c-0.02-0.03-0.04-0.06-0.04-0.09C264.08,546.29,264.08,546.32,264.09,546.35z"
				/>
			<path d="M243.61,496.43c0.01-0.21,0.03-0.41,0.04-0.63C243.61,496.02,243.57,496.24,243.61,496.43z"/>
			<g>
				<path class="st1" d="M238.1,385.76c-0.31-0.14-0.64-0.27-0.96-0.4c-0.01,0.12-0.03,0.23-0.04,0.34
					c1.68,0.87,3.21,1.67,4.81,2.51c0-0.07,0.01-0.13,0.01-0.2C240.69,387.16,239.44,386.37,238.1,385.76z"/>
				<path class="st0" d="M301.09,460.53c-0.84,0.33-1.28,0.87-1.41,1.6c-0.66-1.26-2.88-0.55-2.45,0.99
					c1.53,5.51,0.28,11.18,1,16.79c0.3,2.35,0.6,4.54,0.65,6.68c-0.42,0.18-0.76,0.55-0.8,1.13c-0.21,2.55-0.5,5.11-0.71,7.66
					c-0.04,0.49,0.13,0.81,0.4,1.01c0.44-4.22,1.13-8.44,1.39-12.69c0.25-4.11,0.09-8.23-0.07-12.33c-0.1-2.42,0.28-4.68,0.19-7.1
					c-0.04-0.9,0.14-1.3,0.48-2.15c0.37-0.93,0.64-0.99,1.38-1.61C301.12,460.52,301.11,460.52,301.09,460.53z M297.74,496.75
					c-0.98,2.67-1.18,5.4-1.02,8.32c0.29,5.15,0.42,9.63-0.31,14.75c-0.54,3.72-0.26,7.34,0.22,11.06c0.19,1.46,0.47,3,0.62,4.55
					c0.21-1.09,0.37-2.2,0.35-3.34c-0.04-2.65-0.52-5.28-0.7-7.92c-0.27-3.77,0.04-7.54,0.45-11.28c0.38-3.58,0-7.14,0.05-10.73
					C297.42,500.35,297.55,498.55,297.74,496.75z M295.98,577.67c0.04,0.81,0.05,1.63,0.04,2.44c0.39-3.91,0.88-7.85,0.93-11.74
					c-0.39,1.27-0.81,2.52-1.02,3.82C295.65,574.02,295.9,575.83,295.98,577.67z M296.93,566.5c-0.13-3.82-0.79-7.62-1.11-11.43
					c-0.44-5.22-0.22-10.51,0.63-15.69c0.1-0.59,0.21-1.17,0.34-1.75c-0.13,0.14-0.22,0.32-0.27,0.54c-0.5,2.43-1.43,4.72-1.96,7.14
					c-0.18,0.79,0.25,1.34,0.81,1.54c-0.38,2.44-0.71,4.89-0.69,7.35C294.73,558.37,296.03,562.43,296.93,566.5z M286.96,418.73
					c0.8,0.25,1.65,0.38,2.52,0.5c1.28,0.18,2.57,0.4,3.79,0.81c2.6,0.9,5.18,1.88,7.73,2.93
					C296.82,420.48,291.96,419.13,286.96,418.73z M279.73,468.16l0.4,5.78c0,3.04-0.03,6.09-0.27,9.13
					c-0.22,2.87-0.45,5.72-0.49,8.61c-0.03,1.53-0.37,3.05-0.56,4.58c-0.05,0.37-0.17,0.75-0.12,1.11c0.25,2.08-0.16,4.15-0.03,6.23
					c0.04,0.66,0.16,1.32,0.18,1.99c0.03,0.96,0,1.91-0.02,2.87c-0.01,0.25-0.18,0.52-0.12,0.73c0.52,2.13-0.13,4.23-0.07,6.36
					c0.05,2.54-0.01,5.09-0.25,7.62c-0.43,4.51-0.33,9.03-0.14,13.52c0.16,4.05-0.08,8.11,0.21,12.14c0.26,3.43,0.15,6.84,0.2,10.26
					c0.01,0.62-0.11,1.24-0.15,1.86c-0.03,0.33-0.05,0.67-0.03,1c0.14,1.9,0.44,3.81,0.4,5.72c-0.04,2.12-0.34,4.23-0.58,6.33
					c-0.27,2.32-0.61,4.63-0.88,6.94c-0.28,2.35-0.38,4.74-0.84,7.06c-0.51,2.54-0.73,5.1-1.12,7.65c-0.47,3.13-0.67,6.29-1.08,9.43
					c-0.27,2.05-0.72,4.1-1.04,6.15c-0.26,1.64-0.46,3.3-0.69,4.94c-0.09,0.58-0.11,1.19-0.32,1.71c-0.79,1.96-0.7,4.02-0.87,6.05
					c-0.38,4.54-0.71,9.08-1.07,13.62c-0.02,0.24-0.11,0.46-0.37,0.73c-0.04-0.29-0.13-0.56-0.14-0.85
					c-0.09-3.13-0.17-6.26-0.26-9.4c-0.11-3.59-0.04-7.21-0.4-10.77c-0.35-3.46-0.42-6.9-0.46-10.37c-0.01-0.79-0.13-1.57-0.24-2.36
					c-0.48-3.67-0.58-7.39-1.41-11.01c-0.06-0.29-0.09-0.58-0.08-0.88c0.04-1.83,0.16-3.66,0.15-5.49c0-1.5-0.04-3.01-0.25-4.48
					c-0.32-2.19-0.85-4.34-1.21-6.52c-0.29-1.8-0.5-3.63-0.71-5.45c-0.25-2.19-0.43-4.39-0.71-6.58c-0.43-3.32-0.39-6.66-0.29-10
					c0.03-1.04,0.22-2.08,0.22-3.12c0-1.55-0.17-3.1-0.13-4.65c-5.25-0.97-10.65-0.96-15.83,0.52c-1.64,0.47-0.95,3.03,0.71,2.56
					c4.62-1.31,9.35-1.38,14.01-0.6c0.05,1.08,0.25,2.14,0.48,3.2c-0.38,0.2-0.65,0.56-0.67,1.11c-0.06,2.51-0.39,5.09-0.12,7.55
					c0.04,3.78,0.41,7.48,1.95,11.17c0.04,0.1,0.1,0.19,0.16,0.28c0.04,0.96,0.09,1.9,0.14,2.86c-0.81,0.01-1.69,0.74-1.38,1.67
					c0.26,0.76,0.55,1.46,0.88,2.13c2.46,6.47,2.65,13.38,2.63,20.28c-0.01,3.21-0.29,6.45,0,9.65c0.16,1.79,0.76,3.43,1.33,5.07
					c0.09,0.88,0.2,1.73,0.39,2.56c0.35,3.77,0.17,7.43,0.06,11.3c-0.13,4.58,0.45,9.15,0.53,13.73c0.04,1.7,2.69,1.71,2.65,0
					c-0.06-3.57-0.35-7.1-0.45-10.65c0.33-4.55,0.44-9.13,1.31-13.63c0.79-4.05,1.39-8.14,2.05-12.22c0.24-1.45,0.43-2.89,0.58-4.34
					c0.29-2.82,0.51-5.65,0.83-8.48c0.25-2.2,0.63-4.38,0.9-6.57c0.4-3.23,0.68-6.48,1.17-9.7c0.53-3.44,0.89-6.86,0.59-10.34
					c-0.15-1.7-0.02-3.41,0.01-5.12c0.03-1.63,0.13-3.25,0.1-4.88c-0.03-1.42-0.28-2.83-0.31-4.25c-0.12-4.8-0.2-9.6-0.26-14.41
					c-0.04-2.91-0.04-5.83-0.01-8.74c0.03-2.38,0.12-4.76,0.22-7.14c0.13-3.05,0.34-6.09,0.46-9.13c0.05-1.46-0.02-2.92-0.02-4.39
					c0.01-3.08-0.01-6.17,0.04-9.25c0.03-1.41,0.18-2.82,0.27-4.23c0.12-1.67,0.23-3.34,0.33-5c0.22-3.58,0.53-7.16,0.63-10.74
					c0.08-2.92-0.09-5.84-0.14-8.77C280.32,468.86,280.13,468.46,279.73,468.16z M266.56,425.99c2.54,0.28,3.77,2.11,5.25,4.15
					c0.29-0.22,0.34-0.75-0.03-0.98c-1.02-0.63-1.64-1.91-2.63-2.55c-0.36-0.22-0.52-0.3-0.66-0.33c-0.16-0.14-0.38-0.17-0.57-0.1
					c-0.09-0.02-0.19-0.04-0.3-0.08c-1.06-0.34-2.17-0.63-3.23-1.02c-0.54-0.21-1.07-0.4-1.62-0.59c0,0.01-0.01,0.01-0.01,0.01
					c0.6,0.31,1.17,0.66,1.78,0.9C265.18,425.66,265.87,425.91,266.56,425.99z M260.27,430.22c3.33,0.29,6.66,0.48,9.99,0.71
					c0.39,0.03,0.79,0.01,1.2,0.01c0.05-0.13,0.12-0.28,0.17-0.41c-0.09-0.1-0.18-0.21-0.27-0.31c0.13,0.04,0.26,0.03,0.37-0.02
					c-1.01,0.04-1.77,0.11-2.52,0.07c-2.5-0.12-5.01-0.25-7.51-0.43c-2.58-0.19-5.16-0.37-7.73-0.66c-0.9-0.11-1.8-0.21-2.7-0.29
					c0.31,0.26,0.71,0.42,1.17,0.46C255.05,429.64,257.65,429.99,260.27,430.22z M266.02,481.75v-0.21
					c-0.27,0.21-0.44,0.54-0.38,1.01c0.08,0.65,0.24,1.33,0.42,2.03C266.06,483.64,266.05,482.69,266.02,481.75z M266.06,485.19
					c-0.65,0.01-1.31,0.46-1.3,1.29c0,1.16,0.18,2.12,0.65,2.91c0.22,1.13,0.38,2.24,0.5,3.37
					C265.98,490.23,266.05,487.71,266.06,485.19z M261.9,539.42c-0.04,2.69,1.02,4.72,2.2,6.85c-0.01-0.08,0-0.15,0-0.23
					c0.36-10.11,0.79-20.21,1.14-30.32c0.11-3.08,0.21-6.15,0.3-9.23c-0.14,1.36-0.29,2.71-0.45,4.07
					c-0.86,7.96,0.09,15.97-0.88,23.87c-0.04,0.25,0,0.46,0.07,0.63c-0.15,0.21-0.25,0.46-0.25,0.79c-0.01,0.85,0,1.7,0.02,2.55
					C263.3,537.85,261.92,538.18,261.9,539.42z M243.65,495.75c0.01-0.05,0.02-0.12,0.03-0.17c0.16-1.45,0.37-2.89,0.47-4.35
					c0.03-0.38-0.02-0.66-0.14-0.84C243.88,492.18,243.77,493.97,243.65,495.75z M230.43,383.64c0.62,0.11,1.23,0.22,1.85,0.35
					C231.66,383.86,231.04,383.74,230.43,383.64z M229.04,383.5c0.09-0.02,0.19-0.04,0.29-0.05c0.36,0.06,0.73,0.12,1.1,0.19
					c-0.46-0.08-0.92-0.18-1.38-0.26C229.05,383.42,229.05,383.46,229.04,383.5z M221.85,450.57c-0.02,0.06-0.04,0.13-0.07,0.2
					c0.04,0.01,0.08,0.02,0.12,0.03c0-0.02-0.01-0.03-0.01-0.04C221.88,450.69,221.87,450.64,221.85,450.57z M215.27,746.81
					c0,0.15,0.03,0.29,0.1,0.43c-0.04-0.25-0.07-0.51-0.09-0.76C215.27,746.59,215.27,746.7,215.27,746.81z"/>
			</g>
		</g>
		<polygon class="st0" points="226.63,385.94 232.88,429.03 235.61,380.32 226.63,378.65 		"/>
		<path class="st0" d="M298.6,424.59c0.99-0.26,2.05-0.27,3.09-0.37c0.38-0.04,0.78,0,1.24,0c-0.63-0.45-1.28-0.87-1.94-1.25
			c-2.55-1.04-5.13-2.03-7.73-2.93c-1.21-0.41-2.51-0.63-3.79-0.81c-0.87-0.12-1.71-0.25-2.52-0.5c-8.53-0.68-17.47,1.47-24.2,5.75
			c0.54,0.19,1.08,0.38,1.62,0.59c1.06,0.39,2.17,0.68,3.23,1.02c0.12,0.04,0.21,0.06,0.3,0.08c0.2-0.07,0.41-0.04,0.57,0.1
			c0.14,0.03,0.3,0.11,0.66,0.33c0.99,0.64,1.62,1.92,2.63,2.55c0.37,0.23,0.31,0.76,0.03,0.98c0.01,0.02,0.02,0.03,0.03,0.04h-0.1
			c-0.01,0-0.01,0.01-0.01,0.01c-0.11,0.04-0.23,0.05-0.37,0.02c0.09,0.11,0.18,0.21,0.27,0.31c-0.05,0.13-0.12,0.28-0.17,0.41
			c-0.4,0-0.8,0.02-1.2-0.01c-3.33-0.22-6.66-0.42-9.99-0.71c-2.62-0.23-5.22-0.58-7.83-0.87c-0.46-0.04-0.86-0.21-1.17-0.46
			c-1.67-0.16-3.34-0.24-5.04-0.15c-3.88,0.2-7.77,0.21-11.65,0.29c-0.92,0.03-0.98,0-1.12-0.95c-0.27-1.82-0.58-3.64-0.7-5.47
			c-0.41-6.98,0.29-13.85,2.14-20.6c0.26-0.92,0.55-1.86,0.62-2.8c0.22-3.13,0.41-6.25,0.48-9.39c0.04-1.63,0.01-3.25-0.02-4.88
			c-0.55-0.19-1.13-0.35-1.7-0.5c-0.29-0.07-0.58-0.14-0.87-0.21c-0.29-0.06-0.58-0.13-0.88-0.19c-0.09-0.03-0.18-0.04-0.28-0.06
			c-0.98-0.21-1.97-0.38-2.95-0.54c-0.1,0.02-0.2,0.04-0.29,0.05c-0.03,0.9-0.06,1.82-0.12,2.72c-0.16,2.67-0.46,5.32-0.63,7.99
			c-0.25,4.22-0.44,8.43-0.63,12.65c-0.26,5.68-0.27,11.37,0.17,17.04c0.21,2.62,0.69,5.21,1.14,7.8c0.13,0.78,0.11,1.44-0.21,2.16
			c-2.18,5.15-4.32,10.32-6.47,15.5c-0.16,0.38-0.29,0.78-0.46,1.21c0.02,0.06,0.03,0.12,0.04,0.18c0,0.02,0.01,0.03,0.01,0.04
			c1.71,0.35,3.27,0.69,4.83,0.95c0.37,0.06,0.82-0.07,1.14-0.26c1.29-0.77,2.55-1.61,3.82-2.4c0.3-0.19,0.63-0.35,1.1-0.6
			c0,0.58,0.01,0.99-0.01,1.39c-0.06,1.63-0.13,3.26-0.2,4.89c-0.29,6.37,0.47,12.68,1.06,19c0.44,4.75,0.6,9.51,0.3,14.28
			c-0.12,1.98-0.56,3.96-0.89,5.93c-0.19,1.15-0.46,2.3-0.65,3.45c-0.04,0.23,0.07,0.49,0.12,0.74c0.38-0.3,0.56-0.63,0.7-0.96
			c0.33-0.81,0.65-1.63,0.96-2.45c0.46-1.2,1.1-2.21,2.36-2.78c1.18-0.53,1.72-1.52,2-2.82c0.89-4.25,1.66-8.52,2.06-12.85
			c0.44-4.76,0.54-9.51-0.5-14.23c-0.13-0.6-0.15-1.25-0.09-1.86c0.09-0.81,0.66-1.15,1.44-0.91c1.08,0.33,1.98,0.84,2.18,2.13
			c0.3,2.1,0.76,4.19,1,6.3c0.68,5.8,0.73,11.59-0.01,17.38c-0.16,1.24-0.42,2.48-0.51,3.72c-0.04,0.52-0.07,1.04-0.11,1.55
			c0.13,0.18,0.17,0.46,0.14,0.84c-0.11,1.46-0.31,2.9-0.47,4.35c-0.01,0.05-0.02,0.12-0.03,0.17c-0.01,0.02-0.01,0.04-0.01,0.05
			c-0.01,0.21-0.03,0.42-0.04,0.63c-0.25,3.68-0.48,7.36-0.75,11.04c-0.5,7.09-1.21,14.16-2.3,21.18c-0.52,3.3-1.16,6.56-2.38,9.71
			c-0.68,1.73-0.96,3.62-1.4,5.45c-0.14,0.6-0.03,1.33-0.31,1.83c-0.81,1.41-0.75,2.97-0.94,4.47c-0.2,1.57-0.34,3.14-0.59,4.71
			c-0.35,2.21-0.81,4.41-1.14,6.64c-0.25,1.64-0.39,3.3-0.55,4.96c-0.17,1.7-0.31,3.39-0.47,5.09c-0.04,0.42-0.07,0.84-0.18,1.23
			c-0.34,1.25-0.84,2.46-1.04,3.73c-0.42,2.63-0.79,5.27-0.99,7.91c-0.19,2.41-0.15,4.81-0.46,7.23c-0.38,2.96-0.22,5.99-0.33,8.99
			c-0.05,1.46-0.09,2.92-0.29,4.36c-0.46,3.09-0.99,6.16-1.54,9.23c-0.46,2.63-0.96,5.23-1.46,7.85c-0.07,0.41-0.16,0.82-0.21,1.23
			c-0.21,1.73-0.43,3.47-0.64,5.2c-0.13,1.08-0.25,2.15-0.37,3.22c-0.13,1.29-0.22,2.57-0.41,3.85c-0.23,1.56-0.6,3.11-0.82,4.67
			c-0.25,1.69-0.34,3.4-0.62,5.08c-0.39,2.38-0.68,4.79-1.53,7.07c-0.13,0.34-0.09,0.74-0.13,1.11c-0.21,1.61-0.37,3.22-0.65,4.82
			c-0.51,2.82-1.1,5.64-1.65,8.45c-0.16,0.81-0.35,1.63-0.45,2.45c-0.21,1.7-0.3,3.4-0.58,5.08c-0.72,4.38-1.1,8.77-1.09,13.2
			c0,2.59,0.13,5.17,0.14,7.76c0.01,1.51-0.13,3.01-0.13,4.51c0,1.63,0.14,3.26,0.13,4.89c-0.04,4.47-0.1,8.94-0.18,13.41
			c-0.17,9.15-1.71,18.12-1.96,27.3c-0.02,0.37-0.03,0.74-0.03,1.12c0,0,0,0.01,0,0.02c0.02,0.25,0.04,0.51,0.09,0.76
			c0.28,1.8,1.23,3.46,2.84,4.33c2.71,1.46,6.06,0.74,8.95-0.32c2.88-1.06,5.81-2.45,8.89-2.2c2.7,0.22,5.15,1.71,7.84,2.03
			c4.22,0.5,8.36-1.89,12.59-1.49c4,0.38,7.56,3.22,11.58,3.12c2.81-0.07,5.42-1.59,8.23-1.74c2.3-0.13,4.55,0.67,6.83,0.96
			c2.29,0.29,4.93-0.09,6.3-1.95c0.09-2.41,0.39-5.06,0.06-7.49c0.18-4.37-0.06-8.75-0.15-13.12c-0.57-29.32,4.22-58.61,4.18-87.88
			c-0.01-4.72,0.04-9.45,0.12-14.17c0.17-9.45,0.52-18.89,1.05-28.32c0.12-2.13,0.25-4.25,0.39-6.37c0.2-3.16,0.43-6.31,0.68-9.47
			c0.08-1.02,0.17-2.04,0.28-3.05c0.02-0.81,0-1.63-0.04-2.44c-0.08-1.84-0.34-3.64-0.05-5.47c0.21-1.3,0.63-2.55,1.02-3.82
			c0.01-0.19,0.01-0.37,0.01-0.54c0-0.45-0.01-0.88-0.03-1.33c-0.9-4.06-2.2-8.13-2.24-12.31c-0.03-2.46,0.3-4.91,0.69-7.35
			c-0.56-0.2-0.99-0.75-0.81-1.54c0.53-2.42,1.46-4.71,1.96-7.14c0.04-0.22,0.14-0.4,0.27-0.54c0.15-0.73,0.32-1.46,0.46-2.19
			c-0.14-1.55-0.43-3.09-0.62-4.55c-0.48-3.72-0.76-7.33-0.22-11.06c0.73-5.13,0.61-9.6,0.31-14.75c-0.16-2.92,0.04-5.65,1.02-8.32
			c0.01-0.12,0.02-0.23,0.04-0.36c-0.27-0.2-0.45-0.52-0.4-1.01c0.21-2.55,0.5-5.11,0.71-7.66c0.04-0.58,0.38-0.96,0.8-1.13
			c-0.05-2.14-0.35-4.33-0.65-6.68c-0.72-5.61,0.53-11.28-1-16.79c-0.43-1.55,1.79-2.25,2.45-0.99c0.13-0.73,0.57-1.27,1.41-1.6
			c0.02-0.01,0.03-0.01,0.04-0.02c0-0.16-0.52-1.27-0.54-1.43c-0.4-2.87-0.46-5.73-0.24-8.62c0.21-2.54,0.23-5.09,0.35-7.64
			c0.04-0.93,0.26-1.8,0.73-2.63c0.29-0.5,0.52-1.05,0.68-1.61c0.21-0.72,0.11-1.38-0.58-1.88c-0.36-0.27-0.7-0.65-0.86-1.05
			c-0.73-1.79-2.2-2.93-3.56-4.14c-0.47-0.43-1.15-0.63-1.74-0.91c-0.25-0.13-0.53-0.2-0.83-0.3c0.44-1.02,0.92-1.95,1.25-2.93
			C296.27,425.95,297.19,424.97,298.6,424.59z M248.26,546.87c5.19-1.47,10.58-1.49,15.83-0.52c-0.01-0.03-0.01-0.05,0-0.08
			c-1.18-2.13-2.24-4.16-2.2-6.85c0.03-1.23,1.4-1.57,2.16-1.03c-0.02-0.85-0.03-1.7-0.02-2.55c0-0.32,0.1-0.58,0.25-0.79
			c-0.07-0.18-0.11-0.38-0.07-0.63c0.96-7.9,0.02-15.91,0.88-23.87c0.15-1.36,0.3-2.72,0.45-4.07c0.11-3.73,0.21-7.47,0.29-11.19
			c0.02-0.85,0.04-1.69,0.07-2.54c-0.12-1.13-0.28-2.24-0.5-3.37c-0.47-0.79-0.65-1.75-0.65-2.91c-0.01-0.82,0.65-1.28,1.3-1.29
			c0-0.2,0.01-0.4,0-0.61c-0.18-0.7-0.34-1.38-0.42-2.03c-0.05-0.47,0.12-0.8,0.38-1.01c-0.14-5.38,0.38-10.72,0.71-16.07
			c0.35-5.59,0.57-11.18,0.27-16.78c-0.11-2.05-0.39-4.08-0.74-6.09c-0.43-2.48-1.22-4.85-2.99-7c6.84-1.09,13.51-2.05,20.37-2.92
			c-0.43,2.36-0.71,4.58-2.27,6.36c-0.51,0.58-0.75,1.18-0.71,1.93c0.11,1.49-0.11,2.91-0.89,4.22c-0.13,0.21-0.23,0.47-0.23,0.71
			c-0.03,1.63-0.42,3.21-0.8,4.78c-0.11,0.44-0.07,0.92-0.03,1.38c0.24,2.07,0.5,4.13,0.75,6.21c0.08,0.66,0.17,1.33,0.18,1.99
			c0.02,2.21,0.01,4.43,0.01,6.68l0.08,1.22c0.4,0.3,0.59,0.71,0.6,1.25c0.05,2.93,0.22,5.85,0.14,8.77
			c-0.1,3.58-0.4,7.16-0.63,10.74c-0.1,1.66-0.21,3.33-0.33,5c-0.09,1.41-0.24,2.82-0.27,4.23c-0.04,3.08-0.03,6.17-0.04,9.25
			c0,1.46,0.07,2.92,0.02,4.39c-0.12,3.04-0.32,6.08-0.46,9.13c-0.11,2.38-0.2,4.75-0.22,7.14c-0.04,2.91-0.03,5.83,0.01,8.74
			c0.06,4.8,0.14,9.61,0.26,14.41c0.04,1.42,0.29,2.83,0.31,4.25c0.04,1.63-0.07,3.25-0.1,4.88c-0.03,1.71-0.16,3.42-0.01,5.12
			c0.3,3.48-0.06,6.9-0.59,10.34c-0.49,3.22-0.77,6.47-1.17,9.7c-0.28,2.2-0.65,4.38-0.9,6.57c-0.32,2.82-0.54,5.65-0.83,8.48
			c-0.15,1.45-0.34,2.89-0.58,4.34c-0.66,4.07-1.26,8.16-2.05,12.22c-0.88,4.5-0.98,9.07-1.31,13.63c0.1,3.55,0.38,7.07,0.45,10.65
			c0.04,1.71-2.62,1.7-2.65,0c-0.08-4.58-0.66-9.15-0.53-13.73c0.11-3.87,0.29-7.53-0.06-11.3c-0.2-0.83-0.3-1.68-0.39-2.56
			c-0.57-1.64-1.17-3.29-1.33-5.07c-0.29-3.2-0.01-6.44,0-9.65c0.02-6.9-0.18-13.81-2.63-20.28c-0.33-0.67-0.63-1.37-0.88-2.13
			c-0.31-0.93,0.56-1.66,1.38-1.67c-0.05-0.96-0.11-1.9-0.14-2.86c-0.06-0.09-0.12-0.18-0.16-0.28c-1.54-3.7-1.9-7.39-1.95-11.17
			c-0.28-2.46,0.05-5.04,0.12-7.55c0.02-0.54,0.29-0.91,0.67-1.11c-0.23-1.05-0.43-2.12-0.48-3.2c-4.66-0.79-9.4-0.71-14.01,0.6
			C247.31,549.89,246.62,547.34,248.26,546.87z"/>
	</g>
	<g>
		<path d="M188.66,203.91c-2.51,4.7-8.72,9.22-8.72,5.87c0-0.84,7.38-6.04,7.38-10.56c0-4.86-5.87-7.21-14.25-7.21
			c-6.2,0-21.8,2.35-34.04,9.05c-13.41,7.38-15.42,12.58-5.2,17.44c16.1,7.54,48.96,14.75,48.96,32.36c0,4.7-2.68,9.56-7.71,14.59
			c-15.93,15.26-44.6,26.16-64.38,26.16c-15.59,0-24.82-5.2-24.82-15.09c0-10.23,6.87-19.11,16.26-25.15
			c8.55-5.87,19.28-9.22,28.17-9.22c5.2,0,3.52,2.51-0.34,2.51c-8.05,0-18.95,4.36-26.49,11.23c-14.92,13.41-11.4,28,10.4,28
			c11.4,0,24.48-3.19,29.51-4.86c12.24-4.02,26.49-11.07,31.35-18.61c16.93-25.82-55.33-24.31-55.33-45.94
			c0-18.44,39.07-28.34,53.82-28.34c12.41,0,18.44,3.02,18.44,9.22C191.68,198.38,190.84,200.39,188.66,203.91z"/>
		<path d="M198.55,247.34c1.85-5.2,3.52-9.39,5.87-9.89c2.18-0.17,5.03,0.34,5.87,2.01c1.01,2.01-0.84,5.2-3.35,10.39
			c-5.03,10.06-9.56,18.95-10.06,24.31c-1.17,7.21,2.18,11.07,7.71,8.22c5.37-3.02,17.94-13.58,24.98-23.31
			c0.84-1.17,2.85-0.17,2.01,1.34c-3.19,5.87-13.41,16.93-21.8,22.97c-5.36,4.02-17.77,8.05-21.13-2.01
			c-1.34-3.86,1.51-12.91,5.03-20.62c-1.51,1.84-3.02,4.36-6.54,8.38c-1.68,1.84-3.35-0.34-1.84-2.35
			c5.87-7.21,10.4-13.41,12.91-17.27C198.05,249.02,198.05,248.35,198.55,247.34z M211.97,228.73c-3.02,0-7.21,0-7.21-3.52
			c0-0.84,9.05-7.54,10.06-8.38c6.87-5.53,2.68,0.34,2.68,3.69C217.5,222.36,213.64,228.73,211.97,228.73z"/>
		<path class="st0" d="M233.43,270.14c-1.01,8.22,1.34,17.27,11.07,11.74c6.54-3.52,18.95-14.75,24.65-22.8
			c0.84-1.17,2.85-0.17,1.84,1.68c-3.35,5.87-13.92,16.93-22.3,23.14c-3.35,2.51-7.21,3.69-10.4,3.69
			c-10.06,0-13.08-5.7-12.74-13.41c1.01-16.77,21.29-56.84,32.19-71.26c6.37-8.22,13.92-18.28,25.32-18.28
			c7.54,0,13.08,5.87,7.04,16.77c-13.75,23.98-33.53,43.59-54.49,61.03C234.43,265.78,233.6,268.47,233.43,270.14z M238.12,255.72
			c16.43-11.23,38.56-40.24,47.45-57.34c4.53-8.22,0.67-12.07-6.71-6.54c-10.23,7.88-18.78,19.95-25.99,32.86
			c-1.84,3.35-6.2,11.9-10.06,19.45C240.97,248.01,239.46,252.03,238.12,255.72z"/>
		<path d="M284.23,235.77c8.05-21.29,25.65-54.99,46.95-50.8c1.34,0.17,2.68,0.84,3.69,1.34c11.4,6.2-5.7,25.65-10.4,30.85
			c-10.73,11.4-24.82,21.13-34.2,25.15c-5.2,11.57-9.89,24.98-11.57,30.18l10.9-14.25c-0.17-2.35-0.17-4.36,0.17-6.2
			c0.34-2.18,2.85-5.37,3.35-1.17l0.67,2.35c4.19-4.86,13.08-15.09,18.61-17.77c7.88-3.86,14.59,2.51,6.54,6.54
			c-5.2,2.51-17.61,8.05-24.31,15.09c5.03,17.77,8.55,26.16,20.12,40.41c5.03,6.04,10.73,9.89,15.09,9.89
			c8.22,0,4.19-9.22,1.51-13.41c-2.35-3.69,1.01-2.85,3.19-1.17c1.17,1.34,3.69,6.2,3.69,9.05c-0.17,6.87-8.72,10.06-12.91,10.06
			c-16.6,0-31.02-27.16-35.04-49.29c-7.71,10.9-13.41,21.29-15.76,22.63c-1.68,0.84-10.73,4.86-9.22,1.68
			c1.01-1.84,7.71-21.46,13.25-35.54c-2.35,2.51-5.2,6.04-9.05,11.57c-1.01,1.34-4.53,1.17-1.68-2.51
			c4.69-5.7,10.9-15.09,14.25-19.62c-4.53-2.51-2.01-7.04,0.84-5.37C283.39,235.6,283.73,235.77,284.23,235.77z M320.61,214.81
			c2.51-2.85,16.93-21.8,12.24-25.49c-1.34-1.01-4.02-0.5-7.88,2.51c-15.09,11.57-23.81,25.49-32.7,44.77
			C301.83,232.25,312.06,224.71,320.61,214.81z"/>
		<path d="M326.14,285.57c-2.52,3.35-1.01,6.71,5.2,5.03c8.38-2.51,20.79-12.07,20.79-21.8c0-4.69-9.39-8.22-12.58-10.4
			c-2.52-1.68-4.69-3.52-5.7-6.04c-1.84,3.19-4.53,7.21-7.54,11.57c-1.51,1.84-3.52,0.34-2.35-1.51c4.86-6.71,7.88-12.41,9.05-15.76
			c1.68-13.08,23.64-23.98,35.71-23.98c7.54,0,14.25,3.52,10.4,11.4c-1.01,2.35-2.85,4.19-5.2,5.7c-0.84,0.67-3.02-0.34-0.84-2.51
			c2.68-2.68,4.86-8.55,0.17-9.05c-5.2-0.34-14.25,3.35-18.28,5.37c-5.53,2.68-10.23,6.2-14.42,12.07
			c-3.52,4.86-2.85,8.22,1.84,11.07c11.4,6.71,25.65,10.73,13.25,24.65c-5.7,6.37-15.26,10.39-23.47,12.24
			c-3.19,0.67-10.23,1.68-12.07-1.84c-1.17-1.68,0.34-4.53,2.18-6.71c1.68-1.68,4.86-3.52,8.05-4.86c1.17-0.34,1.51,1.17,0.34,1.68
			C328.82,282.72,327.15,284.23,326.14,285.57z"/>
	</g>
</g>
</svg>
