<?xml version="1.0" encoding="utf-8"?>
<!-- Generator: Adobe Illustrator 23.0.5, SVG Export Plug-In . SVG Version: 6.00 Build 0)  -->
<svg version="1.1" id="Layer_1" xmlns="http://www.w3.org/2000/svg" xmlns:xlink="http://www.w3.org/1999/xlink" x="0px" y="0px"
	 viewBox="0 0 1894 478" style="enable-background:new 0 0 1894 478;" xml:space="preserve">
<style type="text/css">
	.st0{fill:#5D408F;}
	.st1{fill:#402B7D;}
</style>
<g>
	<g>
		<path d="M217.7,162.94c-4.83,9.02-16.76,17.72-16.76,11.28c0-1.61,14.18-11.6,14.18-20.3c0-9.34-11.28-13.86-27.39-13.86
			c-11.92,0-41.89,4.51-65.42,17.4c-25.78,14.18-29.65,24.17-9.99,33.51c30.94,14.5,94.1,28.36,94.1,62.2
			c0,9.02-5.16,18.37-14.82,28.04c-30.61,29.32-85.72,50.27-123.75,50.27c-29.97,0-47.69-9.99-47.69-29
			c0-19.66,13.21-36.74,31.26-48.34c16.43-11.28,37.06-17.72,54.14-17.72c9.99,0,6.77,4.83-0.64,4.83
			c-15.47,0-36.41,8.38-50.92,21.59c-28.68,25.78-21.92,53.82,19.98,53.82c21.92,0,47.05-6.12,56.72-9.35
			c23.52-7.73,50.92-21.27,60.26-35.77c32.55-49.63-106.34-46.73-106.34-88.3c0-35.45,75.09-54.46,103.44-54.46
			c23.85,0,35.45,5.8,35.45,17.72C223.5,152.31,221.89,156.18,217.7,162.94z"/>
		<path d="M252.82,224.17c15.47-40.93,49.31-105.7,90.23-97.64c2.58,0.32,5.16,1.61,7.09,2.58c21.91,11.92-10.96,49.31-19.98,59.3
			c-20.62,21.91-47.69,40.6-65.74,48.34c-9.99,22.24-19.01,48.02-22.24,58.01l20.95-27.39c-0.32-4.51-0.32-8.38,0.32-11.92
			c0.64-4.19,5.48-10.31,6.45-2.26l1.29,4.51c8.06-9.34,25.14-29,35.77-34.16c15.15-7.41,28.04,4.83,12.57,12.57
			c-9.99,4.83-33.84,15.47-46.73,29c9.67,34.16,16.44,50.27,38.67,77.66c9.67,11.6,20.62,19.01,29,19.01
			c15.79,0,8.06-17.72,2.9-25.78c-4.51-7.09,1.93-5.48,6.12-2.26c2.26,2.58,7.09,11.92,7.09,17.4
			c-0.32,13.21-16.76,19.33-24.81,19.33c-31.9,0-59.62-52.2-67.35-94.74c-14.82,20.95-25.78,40.93-30.29,43.5
			c-3.22,1.61-20.62,9.35-17.72,3.22c1.93-3.55,14.82-41.25,25.46-68.32c-4.51,4.83-9.99,11.6-17.4,22.23
			c-1.93,2.58-8.7,2.26-3.22-4.83c9.02-10.96,20.95-29,27.39-37.7c-8.7-4.83-3.87-13.54,1.61-10.31
			C251.21,223.85,251.86,224.17,252.82,224.17z M322.75,183.89c4.83-5.48,32.55-41.89,23.52-48.98c-2.58-1.93-7.73-0.97-15.15,4.83
			c-29,22.24-45.76,48.98-62.84,86.04C286.66,217.41,306.32,202.9,322.75,183.89z"/>
		<path d="M369.15,403.67c-11.92,17.72-30.94,39.32-52.85,35.45c-2.26-0.64-4.83-1.29-6.44-2.26c-20.3-9.99-10.63-29.32,6.44-49.31
			c16.11-18.69,49.63-40.93,70.57-54.78c14.82-30.29,33.51-71.86,38.35-86.69c-17.4,19.98-49.31,74.12-78.63,74.12
			c-28.68,0-25.78-29-16.44-47.05c7.09-14.18,15.79-24.81,26.1-33.84c14.18-13.53,26.1,1.61,21.91,4.83
			c-7.41,4.19-18.37,14.82-28.04,27.39c-5.16,6.77-17.72,32.87-9.02,38.99c5.8,4.51,17.08,0,26.42-9.02
			c24.17-22.88,41.57-48.66,62.52-74.12c2.9-7.41,22.88,1.29,21.27,4.83c-8.06,17.72-27.07,60.91-38.99,86.36
			c8.06-4.19,38.35-27.71,57.68-51.56c3.87-4.83,6.45,0.32,2.58,5.48c-12.89,17.4-48.98,50.59-66.71,60.26
			C392.03,361.13,379.14,387.88,369.15,403.67z M323.71,392.71c-24.49,24.49-16.11,51.88,8.06,32.55
			c24.49-19.66,35.45-52.85,48.98-80.24C364,357.59,340.47,375.63,323.71,392.71z"/>
		<path d="M538.65,159.72c10.96-16.76,29-37.7,50.92-31.58l6.45,2.26c12.89,7.41,11.28,20.62,4.19,35.45
			c-11.92,25.46-54.78,72.83-87.01,98.61c11.28-0.97,23.2-2.26,34.48-2.26c5.16,0,13.53,1.61,0,5.48
			c-5.48,1.61-28.36,4.83-48.34,7.73c-9.02,22.88-23.85,62.84-33.19,88.62c-9.67,27.39-3.55,23.85-7.09,32.55
			c-7.73,19.98-8.7,25.14-13.53,28.04c-4.83,2.58-24.17,10.64-19.34,0.97c3.87-7.09,39.64-97.32,59.62-148.56
			c-7.41,0.97-13.86,1.29-16.44,1.29c-3.87,0-8.7-2.9-8.7-7.41c0-5.48,14.5-9.02,19.33-9.02c5.16,0,6.45,5.16,9.03,5.16h0.96
			l9.35-23.85C505.78,225.14,524.47,182.28,538.65,159.72z M503.2,265.42c32.23-23.85,70.57-73.8,87.98-104.09
			c9.67-16.44,6.77-35.45-12.89-19.98c-12.57,9.67-33.51,39.96-46.08,62.52c-14.18,26.75-25.46,53.49-26.42,56.4
			C504.81,261.23,504.17,263.49,503.2,265.42z"/>
		<path d="M551.86,309.25c-23.85-30.29,49.63-78.63,73.8-84.43c9.67-2.58,23.85-3.22,32.23,2.58c3.22,2.26,5.48,5.48,5.48,8.7
			c0,2.26-0.32,2.26-1.93,1.61c-3.55-5.48-9.99-6.12-16.11-6.12c-16.76,0-39.32,12.89-56.07,27.71
			c-9.02,8.38-35.77,38.99-25.78,53.17c4.51,6.44,20.3-5.16,24.81-8.7c8.38-7.09,22.88-19.34,31.26-28.36
			c4.51-4.83,29-31.9,31.91-31.9c3.22,0,15.79,2.58,12.89,7.73c-11.6,16.44-18.05,36.42-19.34,46.73
			c-1.93,13.86,4.51,21.27,14.82,15.79c10.63-5.8,34.8-26.1,48.02-44.79c1.61-2.26,5.48-0.32,3.87,2.58
			c-5.8,11.28-25.78,32.55-41.89,44.15c-10.31,7.73-34.16,15.47-40.6-3.87c-2.9-8.7,0.97-28.04,5.16-39.32
			c-5.48,2.58-36.09,47.69-61.87,47.69C565.72,320.21,556.7,315.69,551.86,309.25z"/>
		<path d="M715.24,290.24c-1.93,15.79,2.58,33.19,21.27,22.56c12.57-6.77,36.41-28.36,47.37-43.83c1.61-2.26,5.48-0.32,3.54,3.22
			c-6.44,11.28-26.75,32.55-42.86,44.47c-6.45,4.83-13.86,7.09-19.98,7.09c-19.34,0-25.14-10.96-24.49-25.78
			c1.93-32.23,40.93-109.24,61.87-136.96c12.25-15.79,26.75-35.13,48.66-35.13c14.5,0,25.14,11.28,13.53,32.22
			c-26.42,46.08-64.45,83.79-104.73,117.3C717.17,281.86,715.56,287.01,715.24,290.24z M724.26,262.52
			c31.58-21.59,74.12-77.34,91.2-110.21c8.7-15.79,1.29-23.2-12.89-12.57c-19.66,15.15-36.09,38.35-49.95,63.16
			c-3.54,6.44-11.92,22.88-19.34,37.38C729.74,247.7,726.84,255.43,724.26,262.52z"/>
		<path d="M794.58,290.24c-1.93,15.79,2.58,33.19,21.27,22.56c12.57-6.77,36.41-28.36,47.37-43.83c1.61-2.26,5.48-0.32,3.54,3.22
			c-6.44,11.28-26.75,32.55-42.86,44.47c-6.45,4.83-13.86,7.09-19.98,7.09c-19.34,0-25.14-10.96-24.49-25.78
			c1.93-32.23,40.93-109.24,61.87-136.96c12.25-15.79,26.75-35.13,48.66-35.13c14.5,0,25.14,11.28,13.53,32.22
			c-26.42,46.08-64.45,83.79-104.73,117.3C796.51,281.86,794.9,287.01,794.58,290.24z M803.6,262.52
			c31.58-21.59,74.12-77.34,91.2-110.21c8.7-15.79,1.29-23.2-12.89-12.57c-19.66,15.15-36.09,38.35-49.95,63.16
			c-3.54,6.44-11.92,22.88-19.34,37.38C809.08,247.7,806.18,255.43,803.6,262.52z"/>
		<path d="M1124.39,162.94c-4.83,9.02-16.76,17.72-16.76,11.28c0-1.61,14.18-11.6,14.18-20.3c0-9.34-11.28-13.86-27.39-13.86
			c-11.93,0-41.89,4.51-65.42,17.4c-25.78,14.18-29.65,24.17-9.99,33.51c30.94,14.5,94.1,28.36,94.1,62.2
			c0,9.02-5.16,18.37-14.82,28.04c-30.61,29.32-85.72,50.27-123.75,50.27c-29.97,0-47.69-9.99-47.69-29
			c0-19.66,13.21-36.74,31.26-48.34c16.44-11.28,37.06-17.72,54.14-17.72c9.99,0,6.77,4.83-0.64,4.83
			c-15.47,0-36.41,8.38-50.92,21.59c-28.68,25.78-21.92,53.82,19.98,53.82c21.91,0,47.05-6.12,56.71-9.35
			c23.53-7.73,50.92-21.27,60.26-35.77c32.55-49.63-106.34-46.73-106.34-88.3c0-35.45,75.08-54.46,103.44-54.46
			c23.85,0,35.45,5.8,35.45,17.72C1130.19,152.31,1128.58,156.18,1124.39,162.94z"/>
		<path d="M1143.4,246.41c3.55-9.99,6.77-18.05,11.28-19.01c4.19-0.32,9.67,0.64,11.28,3.87c1.93,3.87-1.61,9.99-6.45,19.98
			c-9.67,19.34-18.37,36.42-19.33,46.73c-2.26,13.86,4.19,21.27,14.82,15.79c10.31-5.8,34.48-26.1,48.02-44.79
			c1.61-2.26,5.48-0.32,3.87,2.58c-6.12,11.28-25.78,32.55-41.89,44.15c-10.31,7.73-34.16,15.47-40.6-3.87
			c-2.58-7.41,2.9-24.81,9.67-39.64c-2.9,3.55-5.8,8.38-12.57,16.11c-3.22,3.55-6.45-0.64-3.54-4.51
			c11.28-13.86,19.98-25.78,24.81-33.19C1142.43,249.63,1142.43,248.34,1143.4,246.41z M1169.18,210.64c-5.8,0-13.86,0-13.86-6.77
			c0-1.61,17.4-14.5,19.33-16.11c13.21-10.64,5.16,0.64,5.16,7.09C1179.81,198.39,1172.4,210.64,1169.18,210.64z"/>
		<path d="M1210.43,290.24c-1.93,15.79,2.58,33.19,21.27,22.56c12.57-6.77,36.41-28.36,47.37-43.83c1.61-2.26,5.48-0.32,3.54,3.22
			c-6.44,11.28-26.75,32.55-42.86,44.47c-6.45,4.83-13.86,7.09-19.98,7.09c-19.34,0-25.14-10.96-24.49-25.78
			c1.93-32.23,40.93-109.24,61.87-136.96c12.25-15.79,26.75-35.13,48.66-35.13c14.5,0,25.14,11.28,13.53,32.22
			c-26.42,46.08-64.45,83.79-104.73,117.3C1212.36,281.86,1210.75,287.01,1210.43,290.24z M1219.45,262.52
			c31.58-21.59,74.12-77.34,91.2-110.21c8.7-15.79,1.29-23.2-12.89-12.57c-19.66,15.15-36.09,38.35-49.95,63.16
			c-3.54,6.44-11.92,22.88-19.34,37.38C1224.93,247.7,1222.03,255.43,1219.45,262.52z"/>
		<path d="M1308.06,224.17c15.47-40.93,49.31-105.7,90.23-97.64c2.58,0.32,5.16,1.61,7.09,2.58c21.91,11.92-10.96,49.31-19.98,59.3
			c-20.62,21.91-47.69,40.6-65.74,48.34c-9.99,22.24-19.01,48.02-22.24,58.01l20.95-27.39c-0.32-4.51-0.32-8.38,0.32-11.92
			c0.64-4.19,5.48-10.31,6.45-2.26l1.29,4.51c8.06-9.34,25.14-29,35.77-34.16c15.15-7.41,28.04,4.83,12.57,12.57
			c-9.99,4.83-33.84,15.47-46.73,29c9.67,34.16,16.44,50.27,38.67,77.66c9.67,11.6,20.62,19.01,29,19.01
			c15.79,0,8.06-17.72,2.9-25.78c-4.51-7.09,1.93-5.48,6.12-2.26c2.26,2.58,7.09,11.92,7.09,17.4
			c-0.32,13.21-16.76,19.33-24.81,19.33c-31.9,0-59.62-52.2-67.35-94.74c-14.82,20.95-25.78,40.93-30.29,43.5
			c-3.22,1.61-20.62,9.35-17.72,3.22c1.93-3.55,14.82-41.25,25.46-68.32c-4.51,4.83-9.99,11.6-17.4,22.23
			c-1.93,2.58-8.7,2.26-3.22-4.83c9.02-10.96,20.95-29,27.39-37.7c-8.7-4.83-3.87-13.54,1.61-10.31
			C1306.45,223.85,1307.1,224.17,1308.06,224.17z M1377.99,183.89c4.83-5.48,32.55-41.89,23.52-48.98
			c-2.58-1.93-7.73-0.97-15.15,4.83c-29,22.24-45.76,48.98-62.84,86.04C1341.9,217.41,1361.56,202.9,1377.99,183.89z"/>
		<path d="M1388.62,319.88c-4.83,6.44-1.93,12.89,9.99,9.67c16.11-4.83,39.96-23.2,39.96-41.89c0-9.02-18.05-15.79-24.17-19.98
			c-4.83-3.22-9.02-6.77-10.96-11.6c-3.54,6.12-8.7,13.86-14.5,22.23c-2.9,3.55-6.77,0.65-4.51-2.9
			c9.35-12.89,15.15-23.85,17.4-30.29c3.22-25.14,45.44-46.08,68.64-46.08c14.5,0,27.39,6.77,19.98,21.91
			c-1.93,4.51-5.48,8.06-9.99,10.96c-1.61,1.29-5.8-0.64-1.61-4.83c5.16-5.16,9.35-16.44,0.32-17.4
			c-9.99-0.64-27.39,6.44-35.13,10.31c-10.63,5.16-19.66,11.92-27.71,23.2c-6.77,9.35-5.48,15.79,3.54,21.27
			c21.91,12.89,49.3,20.62,25.46,47.37c-10.96,12.25-29.33,19.98-45.12,23.52c-6.12,1.29-19.66,3.22-23.2-3.55
			c-2.26-3.22,0.64-8.7,4.19-12.89c3.22-3.22,9.34-6.77,15.47-9.34c2.26-0.65,2.9,2.26,0.65,3.22
			C1393.78,314.4,1390.56,317.3,1388.62,319.88z"/>
	</g>
	<g>
		<path class="st0" d="M1754.27,151.35c0.99-0.26,2.05-0.27,3.08-0.37c0.38-0.03,0.77,0,1.23,0c-0.62-0.44-1.27-0.86-1.93-1.24
			c-2.53-1.04-5.1-2.02-7.69-2.92c-1.21-0.41-2.49-0.63-3.77-0.81c-0.86-0.11-1.7-0.25-2.5-0.49c-8.49-0.68-17.39,1.46-24.1,5.72
			c0.54,0.19,1.08,0.38,1.61,0.59c1.06,0.39,2.16,0.67,3.22,1.01c0.12,0.04,0.21,0.06,0.3,0.08c0.2-0.07,0.41-0.04,0.57,0.1
			c0.14,0.03,0.3,0.11,0.66,0.33c0.99,0.64,1.61,1.91,2.62,2.54c0.37,0.23,0.31,0.76,0.03,0.98c0.01,0.02,0.02,0.03,0.03,0.04h-0.1
			c-0.01,0-0.01,0.01-0.01,0.01c-0.11,0.05-0.23,0.06-0.37,0.02c0.09,0.11,0.18,0.21,0.27,0.31c-0.05,0.14-0.11,0.28-0.17,0.41
			c-0.4,0-0.8,0.02-1.19-0.01c-3.32-0.22-6.63-0.42-9.95-0.7c-2.6-0.23-5.2-0.58-7.8-0.86c-0.46-0.05-0.85-0.21-1.16-0.47
			c-1.66-0.16-3.33-0.24-5.02-0.15c-3.85,0.2-7.73,0.22-11.6,0.3c-0.91,0.02-0.98,0-1.11-0.95c-0.13-0.86-0.27-1.72-0.38-2.59
			c-0.14-0.95-0.25-1.9-0.31-2.85c-0.36-6.04,0.13-11.99,1.47-17.85c0.2-0.89,0.42-1.78,0.66-2.66c0.26-0.91,0.55-1.85,0.61-2.79
			c0.18-2.5,0.34-4.99,0.42-7.49c0.03-0.62,0.05-1.23,0.06-1.85c0.05-1.62,0.01-3.23-0.01-4.85c0.38,0.13,0.77,0.26,1.14,0.41v-0.01
			h0.01c0.11,0.05,0.23,0.09,0.34,0.14c0.21,0.08,0.41,0.16,0.61,0.26c0.08,0.04,0.16,0.07,0.23,0.12
			c-5.95-43.18-2.25-79.4,1.29-100.21h-13.66c-6.67,55.1-3.32,84.27,0.28,98.6c0.14-0.07,0.29-0.12,0.44-0.18v1.85l1.53,10.54
			c-0.19,3.43-0.33,6.86-0.49,10.29c-0.26,5.65-0.27,11.32,0.17,16.96c0.2,2.61,0.68,5.19,1.14,7.77c0.13,0.77,0.1,1.43-0.21,2.15
			c-2.17,5.13-4.3,10.28-6.44,15.42c-0.16,0.39-0.29,0.78-0.46,1.21c0.02,0.06,0.03,0.12,0.04,0.18c0,0.02,0.01,0.03,0.01,0.04
			c1.7,0.35,3.25,0.69,4.81,0.95c0.36,0.06,0.81-0.07,1.13-0.26c1.29-0.77,2.54-1.6,3.81-2.39c0.3-0.19,0.62-0.35,1.09-0.6
			c0,0.58,0.01,0.99-0.01,1.39c-0.06,1.62-0.12,3.24-0.19,4.86c-0.29,6.34,0.47,12.63,1.06,18.92c0.43,4.73,0.59,9.47,0.3,14.22
			c-0.12,1.97-0.56,3.94-0.89,5.9c-0.19,1.15-0.45,2.29-0.65,3.43c-0.03,0.24,0.07,0.49,0.12,0.74c0.38-0.3,0.56-0.62,0.69-0.96
			c0.33-0.81,0.65-1.62,0.96-2.43c0.46-1.19,1.09-2.2,2.35-2.77c1.17-0.52,1.71-1.51,1.99-2.81c0.89-4.23,1.65-8.48,2.05-12.79
			c0.44-4.74,0.54-9.47-0.49-14.17c-0.14-0.59-0.16-1.24-0.09-1.85c0.09-0.8,0.65-1.14,1.43-0.9c1.07,0.33,1.97,0.83,2.17,2.12
			c0.3,2.09,0.75,4.17,0.99,6.27c0.68,5.77,0.73,11.54-0.01,17.3c-0.16,1.24-0.41,2.47-0.5,3.71c-0.04,0.52-0.07,1.03-0.11,1.55
			c0.12,0.18,0.17,0.45,0.14,0.83c-0.1,1.45-0.31,2.89-0.47,4.33c-0.01,0.06-0.02,0.12-0.03,0.17v0.06
			c-0.01,0.21-0.03,0.41-0.04,0.62c-0.25,3.66-0.48,7.32-0.75,10.99c-0.49,7.06-1.2,14.09-2.29,21.08
			c-0.52,3.28-1.16,6.53-2.37,9.66c-0.68,1.73-0.96,3.6-1.4,5.43c-0.14,0.59-0.03,1.32-0.31,1.82c-0.81,1.4-0.75,2.95-0.93,4.45
			c-0.2,1.57-0.34,3.13-0.59,4.69c-0.35,2.2-0.81,4.39-1.14,6.61c-0.25,1.63-0.39,3.28-0.55,4.93c-0.17,1.69-0.31,3.38-0.47,5.07
			c-0.04,0.42-0.07,0.83-0.18,1.22c-0.34,1.25-0.84,2.46-1.04,3.72c-0.42,2.61-0.79,5.25-0.99,7.88c-0.18,2.4-0.15,4.79-0.46,7.2
			c-0.38,2.94-0.22,5.97-0.33,8.95c-0.05,1.45-0.09,2.91-0.29,4.34c-0.46,3.08-0.99,6.14-1.53,9.2c-0.45,2.61-0.96,5.21-1.45,7.81
			c-0.07,0.41-0.16,0.82-0.21,1.23c-0.22,1.72-0.43,3.45-0.64,5.17c-0.13,1.08-0.25,2.15-0.37,3.21c-0.13,1.28-0.22,2.56-0.41,3.83
			c-0.23,1.56-0.59,3.1-0.82,4.65c-0.24,1.68-0.33,3.39-0.61,5.06c-0.39,2.37-0.67,4.77-1.52,7.05c-0.13,0.33-0.09,0.73-0.13,1.1
			c-0.22,1.6-0.37,3.21-0.65,4.8c-0.51,2.81-1.1,5.61-1.65,8.41c-0.16,0.81-0.34,1.62-0.44,2.44c-0.21,1.69-0.3,3.38-0.58,5.05
			c-0.72,4.36-1.09,8.74-1.08,13.15c0,2.57,0.12,5.14,0.14,7.72c0.01,1.5-0.13,3-0.13,4.49c0,1.62,0.14,3.25,0.13,4.87
			c-0.04,4.44-0.1,8.9-0.18,13.34c-0.17,9.11-1.7,18.04-1.96,27.18c-0.01,0.37-0.02,0.74-0.02,1.11c0,0,0,0.01,0,0.02
			c0.02,0.25,0.04,0.51,0.09,0.76c0.27,1.79,1.22,3.44,2.82,4.31c2.7,1.46,6.03,0.74,8.91-0.32c2.87-1.06,5.79-2.44,8.85-2.19
			c2.68,0.22,5.13,1.7,7.81,2.02c4.19,0.5,8.32-1.89,12.53-1.49c3.99,0.38,7.53,3.21,11.53,3.11c2.8-0.07,5.4-1.59,8.19-1.74
			c2.3-0.12,4.53,0.67,6.8,0.96c2.28,0.29,4.91-0.08,6.27-1.93c0.09-2.4,0.39-5.05,0.07-7.46c0.17-4.35-0.07-8.72-0.16-13.06
			c-0.57-29.19,4.21-58.36,4.16-87.49c0-4.71,0.04-9.41,0.12-14.11c0.17-9.41,0.52-18.81,1.05-28.2c0.12-2.11,0.25-4.23,0.39-6.34
			c0.2-3.14,0.43-6.28,0.68-9.42c0.08-1.01,0.17-2.03,0.27-3.04c0.39-3.9,0.88-7.82,0.93-11.68c0.01-0.19,0.01-0.37,0.01-0.55
			c0-0.44-0.01-0.88-0.03-1.32c-0.13-3.81-0.78-7.59-1.1-11.38c-0.44-5.2-0.23-10.47,0.62-15.62c0.1-0.59,0.21-1.17,0.34-1.75
			c0.15-0.73,0.32-1.45,0.45-2.17c0.21-1.09,0.36-2.19,0.35-3.33c-0.05-2.64-0.52-5.25-0.7-7.89c-0.26-3.75,0.05-7.5,0.45-11.23
			c0.37-3.56,0-7.11,0.05-10.68c0.03-1.8,0.15-3.59,0.34-5.38c0.01-0.12,0.02-0.23,0.03-0.36c0.44-4.2,1.13-8.4,1.39-12.63
			c0.25-4.09,0.09-8.19-0.07-12.28c-0.1-2.41,0.28-4.66,0.19-7.07c-0.04-0.9,0.14-1.29,0.48-2.14c0.36-0.93,0.64-0.99,1.37-1.6
			c0-0.16-0.52-1.26-0.54-1.42c-0.4-2.86-0.46-5.71-0.24-8.58c0.21-2.53,0.23-5.07,0.35-7.61c0.04-0.92,0.26-1.79,0.73-2.61
			c0.28-0.5,0.51-1.05,0.67-1.6c0.21-0.72,0.11-1.37-0.57-1.88c-0.36-0.26-0.7-0.65-0.86-1.05c-0.73-1.77-2.18-2.91-3.54-4.11
			c-0.48-0.43-1.15-0.63-1.74-0.91c-0.25-0.12-0.52-0.19-0.82-0.3c0.43-1.02,0.91-1.94,1.24-2.92
			C1751.95,152.7,1752.87,151.72,1754.27,151.35z M1737.12,165.73c-0.51,0.58-0.75,1.18-0.7,1.92c0.11,1.49-0.11,2.9-0.89,4.2
			c-0.13,0.21-0.23,0.47-0.23,0.71c-0.03,1.63-0.42,3.19-0.8,4.76c-0.11,0.43-0.07,0.91-0.03,1.37c0.24,2.06,0.5,4.11,0.75,6.18
			c0.08,0.66,0.17,1.32,0.18,1.98c0.01,2.21,0,4.41,0,6.65l0.08,1.22l0.4,5.75c0,3.02-0.02,6.07-0.26,9.09
			c-0.22,2.85-0.45,5.7-0.49,8.57c-0.03,1.52-0.37,3.04-0.56,4.56c-0.05,0.36-0.17,0.75-0.13,1.1c0.25,2.07-0.16,4.14-0.02,6.21
			c0.04,0.66,0.16,1.31,0.18,1.98c0.02,0.95,0,1.9-0.02,2.86c-0.01,0.24-0.18,0.51-0.13,0.72c0.52,2.12-0.12,4.22-0.07,6.33
			c0.06,2.53-0.01,5.07-0.25,7.59c-0.42,4.49-0.33,8.99-0.14,13.46c0.16,4.04-0.08,8.07,0.21,12.08c0.26,3.42,0.16,6.81,0.2,10.22
			c0.01,0.61-0.11,1.23-0.15,1.85c-0.03,0.33-0.05,0.67-0.03,0.99c0.14,1.9,0.44,3.8,0.4,5.69c-0.03,2.11-0.34,4.22-0.58,6.31
			c-0.26,2.31-0.6,4.6-0.88,6.91c-0.27,2.33-0.37,4.72-0.83,7.02c-0.51,2.53-0.73,5.08-1.11,7.62c-0.47,3.11-0.67,6.26-1.08,9.39
			c-0.27,2.04-0.72,4.08-1.04,6.13c-0.26,1.63-0.45,3.28-0.68,4.91c-0.09,0.58-0.11,1.18-0.32,1.71c-0.79,1.95-0.7,4-0.87,6.02
			c-0.38,4.51-0.71,9.04-1.06,13.56c-0.02,0.24-0.11,0.46-0.37,0.73c-0.04-0.29-0.13-0.56-0.14-0.85c-0.09-3.11-0.17-6.23-0.26-9.35
			c-0.1-3.58-0.03-7.18-0.4-10.72c-0.34-3.45-0.42-6.88-0.46-10.33c-0.01-0.78-0.13-1.56-0.24-2.34c-0.48-3.66-0.58-7.36-1.4-10.97
			c-0.07-0.28-0.09-0.58-0.08-0.87c0.04-1.82,0.16-3.64,0.15-5.47c0-1.49-0.04-2.99-0.25-4.46c-0.32-2.18-0.85-4.32-1.2-6.49
			c-0.3-1.8-0.5-3.61-0.71-5.42c-0.24-2.18-0.42-4.38-0.7-6.56c-0.42-3.3-0.39-6.63-0.28-9.95c0.02-1.04,0.22-2.08,0.22-3.11
			c0-1.54-0.17-3.08-0.13-4.63c-0.01-0.03-0.01-0.05,0-0.08c-0.01-0.08,0-0.15,0-0.23c0.35-10.07,0.78-20.12,1.13-30.19
			c0.11-3.06,0.21-6.12,0.31-9.19c0.1-3.72,0.2-7.43,0.29-11.14c0.02-0.84,0.04-1.68,0.07-2.53c0.07-2.5,0.14-5.02,0.15-7.53
			c0-0.19,0.01-0.4,0-0.6c-0.18-0.69-0.34-1.37-0.42-2.02c-0.05-0.47,0.12-0.8,0.39-1c-0.15-5.36,0.37-10.67,0.71-16
			c0.35-5.56,0.57-11.13,0.27-16.7c-0.11-2.04-0.4-4.07-0.74-6.07c-0.43-2.47-1.22-4.83-2.98-6.97c6.81-1.08,13.45-2.04,20.28-2.91
			C1738.95,161.75,1738.67,163.96,1737.12,165.73z"/>
		<path class="st0" d="M1682.62,111.02v1.85c-0.14-0.53-0.29-1.09-0.44-1.67C1682.32,111.13,1682.47,111.08,1682.62,111.02z"/>
		<path class="st0" d="M1685.03,110.32"/>
		<path class="st0" d="M1691.95,116.74c0.05-1.62,0.01-3.23-0.01-4.85c0.38,0.13,0.77,0.26,1.14,0.41v-0.01h0.01
			c0.11,0.05,0.23,0.09,0.34,0.14c0.2,0.08,0.41,0.17,0.61,0.26c0.08,0.04,0.16,0.07,0.23,0.12c0.02,0.16,0.04,0.32,0.07,0.49
			c0.12,0.86,0.24,1.72,0.37,2.59l-2.82,2.7C1691.92,117.97,1691.94,117.36,1691.95,116.74z"/>
		<g>
			<path d="M1737.12,165.73c-0.51,0.58-0.75,1.18-0.7,1.92c0.11,1.49-0.11,2.9-0.89,4.2c-0.13,0.21-0.23,0.47-0.23,0.71
				c-0.03,1.63-0.42,3.19-0.8,4.76c-0.11,0.43-0.07,0.91-0.03,1.37c0.24,2.06,0.5,4.11,0.75,6.18c0.08,0.66,0.17,1.32,0.18,1.98
				c0.01,2.21,0,4.41,0,6.65l0.08,1.22c-0.11-0.1-0.24-0.18-0.39-0.25c-0.86,0.46-1.79,0.84-2.58,1.41
				c-1.04,0.75-1.92,1.76-2.98,2.46c-1.25,0.82-1.93,1.89-2.14,3.32c-0.05,0.3-0.07,0.59-0.17,0.87c-0.71,2.12-1.34,4.33-3.82,5.15
				c-0.05,0.02-0.08,0.14-0.11,0.19c0.01,0.03,0.02,0.06,0.04,0.09c-0.49-0.24-1.1-0.22-1.49,0.09c-0.15-5.36,0.37-10.67,0.71-16
				c0.35-5.56,0.57-11.13,0.27-16.7c-0.11-2.04-0.4-4.07-0.74-6.07c-0.43-2.47-1.22-4.83-2.98-6.97c6.81-1.08,13.45-2.04,20.28-2.91
				C1738.95,161.75,1738.67,163.96,1737.12,165.73z"/>
			<path d="M1700.53,211.6c-0.16,1.24-0.41,2.47-0.5,3.71c-0.04,0.52-0.07,1.03-0.11,1.55c-0.16-0.23-0.46-0.3-0.95-0.22
				c-0.76,0.14-1.53,0.38-2.21,0.73c-0.92,0.47-1.76,1.11-2.64,1.66c-1.09,0.67-1.92,1.57-2.51,2.7c-0.46,0.89-1.01,1.73-1.49,2.6
				c-0.67,1.24-1.33,2.49-2.01,3.73c-0.51,0.94-1.05,1.88-1.57,2.82c-0.51,0.94-0.98,1.91-1.49,2.85c-0.36,0.7-0.67,1.45-1.16,2.06
				c-1.08,1.33-2.05,2.7-2.55,4.37c-0.19,0.61-0.7,1.13-1,1.72c-0.58,1.11-1,2.3-1.69,3.33c-1.25,1.9-2.61,3.74-3.98,5.58
				c-0.81,1.08-1.33,2.23-1.52,3.61c-0.26,1.96-0.61,3.93-1.12,5.85c-1.17,4.43-3.82,7.86-7.45,10.61
				c-1.28,0.97-2.47,2.09-3.56,3.28c-0.97,1.07-1.77,2.31-2.59,3.51c-0.23,0.33-0.26,0.8-0.43,1.37c0.83,0,1.45-0.02,2.06,0.01
				c0.98,0.05,1.29,0.52,1.09,1.61c-0.18,0.04-0.38,0.11-0.58,0.11c-0.95-0.01-1.91-0.05-2.86-0.03c-0.36,0-0.8,0.06-1.04,0.28
				c-0.36,0.33,0.07,0.67,0.23,0.98c1.07,2.05,2.7,3.56,4.69,4.7c0.17,0.11,0.37,0.2,0.56,0.2c1.53-0.01,3.06-0.05,4.59-0.06
				c1.12-0.01,2.19,0.28,3,1.02c1.39,1.26,2.72,2.56,4.01,3.92c1.02,1.07,1.38,2.42,1.38,3.9c0,0.95,0.01,1.93,0.22,2.84
				c0.42,1.98,0.53,3.94,0.47,5.95c-0.07,1.96-0.66,3.56-2.45,4.6c-0.85,0.5-1.46,1.35-1.62,2.28c-0.26,1.64-0.34,3.32,0.55,4.86
				c0.13,0.23,0.22,0.48,0.35,0.78c-1.13,0.15-1.92-0.01-2.4-1.14c-0.42-0.97-1.06-1.87-1.65-2.77c-0.66-1.01-1.09-2.04-0.99-3.27
				c0.11-1.3-0.43-2.44-1.08-3.52c-0.49-0.85-2.19-1.11-2.93-0.47c-0.78,0.69-1.54,1.38-2.27,2.11c-0.25,0.26-0.42,0.61-0.6,0.94
				c-0.29,0.55-0.53,1.13-0.85,1.66c-1.37,2.18-2.73,4.36-4.17,6.51c-0.76,1.12-1.69,2.15-2.51,3.24c-0.54,0.71-1.21,0.83-1.99,0.56
				c-1.02-0.35-2.03-0.73-3.05-1.07c-1-0.34-1.65-0.16-2.06,0.77c-1.08,2.44-3.08,4.22-4.68,6.28c-0.77,0.97-1.29,1.88-1.34,3.09
				c-0.01,0.56-0.17,1.06-0.65,1.32c-1.33-0.28-1.99-1.27-2.72-2.17c-0.59-0.76-1.2-0.75-1.8,0.01c-0.13,0.16-0.23,0.34-0.33,0.53
				c-1.24,2.42-3.05,4.57-3.57,7.35c-0.09,0.51-0.46,0.97-0.72,1.45c-0.59,1.1-1.07,2.28-1.05,3.54c0.01,1.03,0.23,2.06,0.34,3.09
				c0.25,2.14,0.14,4.25-0.67,6.26c-0.51,1.26-0.88,2.55-0.84,3.88c0.08,2.36,0.32,4.71,0.5,7.07c0.02,0.25,0.09,0.5,0.12,0.74
				c0.13,1.15,0.31,2.3,0.36,3.46c0.07,1.32,0.04,2.65,0.02,3.98c-0.01,0.34-0.16,0.68-0.24,1.01c-1.75,0.11-2.56-0.91-3.12-2.19
				c-0.72-1.68-1.36-3.39-2.06-5.08c-0.28-0.69-0.53-1.42-0.96-2.01c-0.61-0.85-0.86-1.76-1-2.77c-0.09-0.65-0.22-1.32-0.51-1.89
				c-0.74-1.45-1.55-2.85-2.37-4.25c-0.57-0.97-1.26-1.15-2.15-0.43c-0.67,0.54-1.18,1.27-1.73,1.94c-0.68,0.83-1.32,1.71-2.03,2.52
				c-1.04,1.15-2.37,1.41-3.86,1.14c-0.79-1.47-0.09-2.68,0.63-3.83c0.65-1.01,1.46-1.91,2.18-2.88c0.38-0.5,0.77-0.99,1.04-1.55
				c0.75-1.61,1.53-3.23,2.15-4.9c0.72-1.92,1.8-3.54,3.38-4.85c1.93-1.61,3.15-3.68,4.04-6.04c0.8-2.11,1.15-4.33,1.74-6.49
				c0.56-2.04,1.12-4.09,1.52-6.16c0.56-2.93,0.97-5.89,1.42-8.85c0.05-0.35,0.1-0.87-0.11-1.07c-0.92-0.95-1-2.17-1.16-3.35
				c-0.16-1.14-0.56-1.98-1.8-2.2c-0.19-0.03-0.37-0.17-0.57-0.24c-0.47-0.16-0.7-0.49-0.84-0.98c-0.66-2.27-1.29-4.55-1.13-6.97
				c0.05-0.81-0.17-1.64-0.78-2.3c-0.16-0.18-0.34-0.37-0.44-0.6c-0.58-1.43-1.24-2.8-2.4-3.88c-0.53-0.49-0.62-1.06-0.32-1.8
				c0.37-0.92,0.89-1.66,1.64-2.29c1.13-0.95,2.4-1.65,3.76-2.18c0.63-0.24,1.05-0.66,1.25-1.29c0.35-1.07,1.03-1.86,1.91-2.54
				c0.51-0.39,1-0.95,1.22-1.54c0.63-1.62,1.14-3.29,1.65-4.96c0.54-1.74,1.02-3.5,1.96-5.1c0.2-0.35,0.38-0.78,0.4-1.17
				c0.06-1.7,0.56-3.27,1.16-4.83c0.4-0.99,0.44-2.02,0.27-3.06c-0.16-1.03-0.38-2.04-0.55-3.06c-0.82-4.88-1.6-9.77-1.25-14.74
				c0.04-0.7,0.23-1.39,0.4-2.07c0.46-1.69,1.04-3.34,1.37-5.05c0.34-1.65,0.96-3.14,1.78-4.6c0.86-1.52,1.67-3.05,3.05-4.19
				c0.09-0.08,0.17-0.19,0.23-0.29c1.18-1.97,2.95-3.37,4.58-4.91c0.39-0.37,0.79-0.74,1.09-1.18c1.41-2.16,2.82-4.32,4.18-6.51
				c2.37-3.83,5.21-7.28,8.16-10.66c0.9-0.74,1.82-1.48,2.76-2.2c2.31-1.77,3.99-3.99,6.05-6.03c1.47-1.45,3.24-2.53,4.88-3.77
				c1.82-1.37,3.04-2.8,4.32-4.66c0.23-0.33,0.45-0.66,0.68-0.99c1.29-1.9,2.49-3.79,3.16-6c0.21-0.68,0.3-1.45,0.21-2.15
				c1.7,0.35,3.25,0.69,4.81,0.95c0.36,0.06,0.81-0.07,1.13-0.26c1.29-0.77,2.54-1.6,3.81-2.39c0.3-0.19,0.62-0.35,1.09-0.6
				c0,0.58,0.01,0.99-0.01,1.39c-0.06,1.62-0.12,3.24-0.19,4.86c-0.29,6.34,0.47,12.63,1.06,18.92c0.43,4.73,0.59,9.47,0.3,14.22
				c-0.12,1.97-0.56,3.94-0.89,5.9c-0.19,1.15-0.45,2.29-0.65,3.43c-0.03,0.24,0.07,0.49,0.12,0.74c0.38-0.3,0.56-0.62,0.69-0.96
				c0.33-0.81,0.65-1.62,0.96-2.43c0.46-1.19,1.09-2.2,2.35-2.77c1.17-0.52,1.71-1.51,1.99-2.81c0.89-4.23,1.65-8.48,2.05-12.79
				c0.44-4.74,0.54-9.47-0.49-14.17c-0.14-0.59-0.16-1.24-0.09-1.85c0.09-0.8,0.65-1.14,1.43-0.9c1.07,0.33,1.97,0.83,2.17,2.12
				c0.3,2.09,0.75,4.17,0.99,6.27C1701.22,200.07,1701.27,205.84,1700.53,211.6z"/>
			<path d="M1684.76,160.58c-2.17,5.13-4.3,10.28-6.44,15.42c-0.16,0.39-0.29,0.78-0.46,1.21c-0.34-2.02-0.79-4.03-1.23-6.03
				c-0.72-3.29-1.54-6.56-2.18-9.86c-0.55-2.86-1.06-5.73-1.34-8.63c-0.26-2.84-0.31-5.73-0.29-8.59c0.03-4.24,0.2-8.48,0.3-12.72
				c0.08-3.5,0.33-6.97,1.26-10.37c0.37-1.39,0.65-2.9,1.67-3.97c1.79-1.91,3.67-3.73,5.6-5.51c0.15-0.14,0.33-0.24,0.53-0.33
				c0.14-0.07,0.29-0.12,0.44-0.18v1.85l1.53,10.54c-0.19,3.43-0.33,6.86-0.49,10.29c-0.26,5.65-0.27,11.32,0.17,16.96
				c0.2,2.61,0.68,5.19,1.14,7.77C1685.1,159.2,1685.07,159.86,1684.76,160.58z"/>
			<path d="M1751.7,306.17c-0.03,4.14-0.61,8.33-0.95,12.46c0.2-3.14,0.43-6.28,0.68-9.42
				C1751.51,308.2,1751.6,307.18,1751.7,306.17z"/>
			<path d="M1877.93,152.56c-1.36,1.53-2.55,3.18-3.88,4.74c-1.58,1.86-3.37,3.55-5.02,5.37c-1.43,1.56-2.85,3.15-4.16,4.81
				c-0.58,0.73-1,1.62-1.34,2.5c-1,2.64-2.22,5.12-4.25,7.12c-0.27,0.26-0.56,0.49-0.83,0.75c-1.51,1.46-3.24,1.37-4.97,0.58
				c-1.25-0.56-2.39-1.32-3.61-1.96c-5.12-2.65-10.84-0.05-16.02,0.4c-5.64,0.48-11.04,1.96-16.39,3.66
				c-3.53,1.12-7.07,2.16-10.63,3.15c-3.51,0.99-7.1,0.87-10.65,0.37c-3.25-0.46-6.45-1.23-9.7-1.72c-3.73-0.56-7.47-1.2-11.29-0.74
				c-2.05,0.24-4.15,0.26-6.18,0.66c-1.53,0.31-2.98,1-4.44,1.6c-2.6,1.05-5.16,2.23-7.77,3.26c0-0.16-0.52-1.26-0.54-1.42
				c-0.4-2.86-0.46-5.71-0.24-8.58c0.21-2.53,0.23-5.07,0.35-7.61c0.04-0.92,0.26-1.79,0.73-2.61c0.28-0.5,0.51-1.05,0.67-1.6
				c0.21-0.72,0.11-1.37-0.57-1.88c-0.36-0.26-0.7-0.65-0.86-1.05c-0.73-1.77-2.18-2.91-3.54-4.11c-0.48-0.43-1.15-0.63-1.74-0.91
				c-0.25-0.12-0.52-0.19-0.82-0.3c0.43-1.02,0.91-1.94,1.24-2.92c0.47-1.42,1.39-2.4,2.79-2.77c0.99-0.26,2.05-0.27,3.08-0.37
				c0.38-0.03,0.77,0,1.23,0c-0.62-0.44-1.27-0.86-1.93-1.24c0.08,0.03,0.16,0.05,0.24,0.09c1.03,0.42,1.94,1.09,2.93,1.63
				c0.42,0.23,0.85,0.48,1.32,0.59c2.79,0.62,5.62,0.31,8.45,0.29c0.4,0,0.85-0.09,1.21-0.26c0.99-0.48,2.02-0.39,3.05-0.33
				c0.59,0.03,1.18,0.18,1.73,0.09c0.97-0.15,1.81,0.17,2.65,0.49c1.13,0.43,1.63,2.1,0.78,2.94c-0.85,0.82-1.67,1.75-2.98,1.93
				c-0.54,0.07-1,0.32-1.17,0.93c1.17,0.21,2.28,0.38,3.37,0.61c2.36,0.47,4.71,1.06,7.08,1.41c2.43,0.36,4.9,0.33,7.29,0.94
				c0.36,0.09,0.75,0.06,1.11,0.12c2.63,0.42,5.24-0.04,7.84-0.13c4.33-0.13,8.66-0.26,12.97,0.24c3.36,0.4,6.73,0.38,10.09,0.27
				c1.31-0.04,2.62-0.38,3.94-0.58c0.69-0.1,1.4-0.29,2.1-0.26c1.93,0.1,3.78-0.45,5.68-0.64c0.44-0.05,0.88-0.24,1.31-0.39
				c1.53-0.52,3.06-1.07,4.59-1.59c0.36-0.11,0.73-0.18,1.09-0.21c2-0.1,3.96-0.37,5.86-0.97c1.59-0.5,3.15-1.06,4.72-1.61
				c2.35-0.83,4.68-1.69,7.04-2.51c4.85-1.67,9.73-4.88,14.77-5.81c0.6-0.11,2.97-0.15,4.5,0.32
				C1883.67,148.38,1878.91,151.45,1877.93,152.56z"/>
			<path d="M1742.69,145.52c-8.49-0.68-17.39,1.46-24.1,5.72c-1.09-0.39-2.21-0.76-3.31-1.11c-1.52-0.48-3.29-0.6-4.88-1.02
				c-3.42-1.3-6.59-3.14-9.63-5.62c0.2,0.59,0.29,0.94,0.44,1.26c0.52,1.17,1.02,2.37,1.63,3.5c1.22,2.26,2.52,4.49,3.78,6.73
				c0.15,0.26,0.32,0.48,0.53,0.64c-1.66-0.16-3.33-0.24-5.02-0.15c-3.85,0.2-7.73,0.22-11.6,0.3c-0.91,0.02-0.98,0-1.11-0.95
				c-0.13-0.86-0.27-1.72-0.38-2.59c-0.14-0.95-0.25-1.9-0.31-2.85c-0.36-6.04,0.13-11.99,1.47-17.85c0.2-0.89,0.42-1.78,0.66-2.66
				c0.26-0.91,0.55-1.85,0.61-2.79c0.18-2.5,0.34-4.99,0.42-7.49c0.03-0.62,0.05-1.23,0.06-1.85c0.05-1.62,0.01-3.23-0.01-4.85
				c0.38,0.13,0.77,0.26,1.14,0.41v-0.01h0.01c0.11,0.05,0.23,0.09,0.34,0.14c0.2,0.08,0.41,0.17,0.61,0.26
				c0.08,0.04,0.16,0.07,0.23,0.12c1.25,0.58,2.42,1.32,3.57,2.12c0.36,0.25,0.74,0.51,1.1,0.77c0.14,0.66,0.5,1.19,1.13,1.6
				c3.82,2.51,7.62,5.05,11.43,7.59c0.27,0.19,0.57,0.35,0.82,0.56c3.19,2.74,6.41,5.44,9.54,8.23c3.18,2.82,6.48,5.48,9.94,7.95
				c1.49,1.07,3.06,1.78,4.97,1.56c1.38-0.16,2.67,0.17,3.72,1.11C1741.16,144.89,1741.9,145.27,1742.69,145.52z"/>
			<path d="M1727.63,156.91h-0.1c0.02,0,0.04-0.02,0.07-0.04C1727.61,156.89,1727.62,156.9,1727.63,156.91z"/>
			<path d="M1719.96,272.57c-0.02,0-0.03-0.01-0.04-0.01c-0.01-0.03-0.01-0.05,0-0.08C1719.93,272.51,1719.94,272.54,1719.96,272.57
				z"/>
			<path d="M1699.56,222.25c-0.01,0.21-0.03,0.41-0.04,0.62C1699.48,222.67,1699.53,222.46,1699.56,222.25z"/>
			<g>
				<path class="st1" d="M1697.84,114.93c0,0.06,0,0.13-0.01,0.2c-1.17-0.61-2.31-1.21-3.49-1.83c-0.42-0.22-0.85-0.44-1.29-0.67
					c0.01-0.1,0.02-0.22,0.04-0.34c0.11,0.05,0.23,0.09,0.34,0.14c0.2,0.08,0.41,0.17,0.61,0.26c0.08,0.04,0.16,0.07,0.23,0.12
					C1695.52,113.39,1696.69,114.13,1697.84,114.93z"/>
				<path class="st0" d="M1671.32,471.8c-0.01,0.11-0.01,0.22-0.01,0.33c0,0.15,0.03,0.29,0.1,0.43
					C1671.36,472.31,1671.34,472.05,1671.32,471.8z M1677.9,177.39c-0.01-0.06-0.02-0.12-0.04-0.18c-0.02,0.06-0.04,0.13-0.07,0.2
					c0.04,0.01,0.08,0.02,0.12,0.02C1677.91,177.42,1677.9,177.41,1677.9,177.39z M1699.92,216.86c-0.12,1.78-0.24,3.55-0.36,5.33
					c0.01-0.05,0.02-0.11,0.03-0.17c0.16-1.44,0.37-2.88,0.47-4.33C1700.09,217.31,1700.04,217.04,1699.92,216.86z M1721.84,208.25
					v-0.2c-0.27,0.2-0.44,0.53-0.39,1c0.08,0.65,0.24,1.33,0.42,2.02C1721.87,210.14,1721.86,209.18,1721.84,208.25z
					 M1727.15,156.94c0.14,0.04,0.26,0.03,0.37-0.02C1727.39,156.92,1727.27,156.93,1727.15,156.94z M1727.15,156.94
					c-0.83,0.04-1.48,0.08-2.14,0.05c-2.49-0.11-4.99-0.24-7.48-0.42c-2.57-0.19-5.14-0.37-7.7-0.66c-0.89-0.11-1.78-0.21-2.68-0.29
					c0.31,0.26,0.7,0.42,1.16,0.47c2.6,0.28,5.2,0.63,7.8,0.86c3.32,0.28,6.63,0.48,9.95,0.7c0.39,0.03,0.79,0.01,1.19,0.01
					c0.06-0.13,0.12-0.27,0.17-0.41C1727.33,157.15,1727.24,157.05,1727.15,156.94z M1727.57,155.89c-1.01-0.63-1.63-1.9-2.62-2.54
					c-0.36-0.22-0.52-0.3-0.66-0.33c-0.16-0.14-0.37-0.17-0.57-0.1c-0.09-0.02-0.18-0.04-0.3-0.08c-1.06-0.34-2.16-0.62-3.22-1.01
					c-0.53-0.21-1.07-0.4-1.61-0.59c0,0.01-0.01,0.01-0.01,0.01c0.6,0.31,1.17,0.66,1.77,0.9c0.65,0.26,1.34,0.51,2.02,0.59
					c2.53,0.27,3.75,2.09,5.23,4.13C1727.88,156.65,1727.94,156.12,1727.57,155.89z M1742.69,145.52c0.8,0.24,1.64,0.38,2.5,0.49
					c1.28,0.18,2.56,0.4,3.77,0.81c2.59,0.9,5.16,1.88,7.69,2.92C1752.49,147.26,1747.66,145.91,1742.69,145.52z"/>
			</g>
		</g>
		<path class="st0" d="M1690.2,131.53l-1.16,20.7c-0.14-0.95-0.25-1.9-0.31-2.85C1688.37,143.34,1688.86,137.39,1690.2,131.53z"/>
	</g>
</g>
</svg>
