<?xml version="1.0" encoding="utf-8"?>
<!-- Generator: Adobe Illustrator 23.0.5, SVG Export Plug-In . SVG Version: 6.00 Build 0)  -->
<svg version="1.1" id="Layer_1" xmlns="http://www.w3.org/2000/svg" xmlns:xlink="http://www.w3.org/1999/xlink" x="0px" y="0px"
	 viewBox="0 0 62.5 68.8" style="enable-background:new 0 0 62.5 68.8;" xml:space="preserve">
<style type="text/css">
	.st0{fill:#FFFFFF;}
</style>
<title>Asset 9</title>
<g>
	<g id="Layer_1-2">
		<path class="st0" d="M31.3,0C14,0,0,14,0,31.3s14,31.3,31.3,31.3s31.3-14,31.3-31.3S48.5,0,31.3,0z M46,44.3
			c0.1,0.9-0.6,1.6-1.4,1.7c-0.1,0-0.2,0-0.2,0C29,46,16.5,33.6,16.5,18.3c0,0,0,0,0-0.1c-0.1-0.9,0.6-1.6,1.5-1.6
			c0.1,0,0.1,0,0.2,0h5.7c0.8,0,1.6,0.6,1.6,1.5c0,0.1,0,0.1,0,0.2c0,1.9,0.3,3.9,0.8,5.7c0.3,0.5,0.1,1.2-0.4,1.6l-3.6,3.6
			c2.4,4.6,6.2,8.4,10.8,10.8l3.6-3.6c0.5-0.3,1.1-0.5,1.6-0.3c1.9,0.7,3.9,1,5.9,1c0.8-0.1,1.6,0.6,1.7,1.4c0,0.1,0,0.1,0,0.2V44.3
			z"/>
	</g>
</g>
</svg>
